{"glyphs":{"0":{"ha":814,"x_min":64,"x_max":750,"o":"m 158 905 q 182 939 158 905 q 272 1003 205 972 q 426 1034 339 1034 q 574 996 513 1034 q 675 891 635 959 q 750 528 750 762 q 654 134 750 279 q 389 -14 556 -14 q 138 153 227 -14 q 64 460 64 293 q 88 733 64 627 q 158 905 112 838 m 408 922 q 231 675 260 922 q 222 522 222 604 l 222 511 q 326 130 222 221 q 408 98 361 98 q 490 130 455 98 q 547 216 524 161 q 592 511 591 325 q 497 891 592 808 q 408 922 462 922 z "},"1":{"ha":814,"x_min":164,"x_max":730,"o":"m 713 96 q 730 48 730 96 q 706 0 730 0 l 216 0 q 200 37 200 0 l 200 39 q 218 90 200 71 q 229 96 224 96 l 330 96 q 401 113 392 96 q 404 125 404 118 l 404 781 q 390 822 404 822 q 372 817 385 822 l 340 804 q 303 789 323 798 q 265 773 283 780 q 211 755 220 755 q 193 762 201 755 q 179 777 186 768 q 164 817 164 798 q 175 841 164 834 l 486 1034 q 547 1021 547 1034 l 547 96 l 713 96 z "},"2":{"ha":814,"x_min":97,"x_max":722,"o":"m 201 684 q 127 714 157 684 q 97 796 97 745 q 124 893 97 848 q 195 970 152 939 q 404 1034 284 1034 q 621 974 538 1034 q 705 810 705 913 l 705 809 q 578 531 705 652 q 502 463 543 496 l 420 396 q 229 143 269 273 l 604 143 l 631 236 q 669 251 650 251 q 722 216 706 251 l 691 0 l 117 0 l 117 51 q 253 389 117 240 q 332 469 292 431 l 411 544 q 528 697 496 624 q 547 799 547 739 q 503 895 547 859 q 380 930 458 930 q 255 882 296 930 q 291 845 277 871 q 305 793 305 819 q 297 747 305 766 q 275 714 289 728 q 201 684 247 684 z "},"3":{"ha":814,"x_min":98,"x_max":718,"o":"m 256 139 q 382 91 297 91 q 510 142 461 91 q 560 282 560 195 q 512 420 560 361 q 370 496 460 486 l 370 559 q 530 687 487 592 q 548 766 548 724 q 536 836 548 808 q 503 885 525 864 q 382 930 458 930 q 256 882 297 930 q 292 845 278 871 q 307 793 307 819 q 298 747 307 766 q 277 714 290 728 q 203 684 248 684 q 129 714 159 684 q 98 796 98 745 q 126 893 98 848 q 197 970 153 939 q 405 1034 286 1034 q 615 963 536 1034 q 691 787 691 894 l 691 786 q 585 581 691 659 q 523 544 555 558 q 645 460 608 501 q 718 275 718 379 l 718 274 q 629 77 718 161 q 395 -14 535 -14 q 195 50 283 -14 q 98 231 98 121 l 98 232 q 129 307 98 276 q 203 336 159 336 q 274 308 243 336 q 305 231 305 279 q 256 139 305 184 z "},"4":{"ha":814,"x_min":65,"x_max":756,"o":"m 739 387 q 756 345 756 387 q 745 296 756 309 q 726 282 733 282 l 615 282 l 615 96 l 715 96 q 732 48 732 96 q 707 0 732 0 l 283 0 q 268 37 268 0 l 268 39 q 286 90 268 71 q 297 96 292 96 l 398 96 q 469 113 460 96 q 472 125 472 118 l 472 282 l 97 282 q 65 329 69 298 l 376 1034 q 495 945 495 1034 l 213 387 l 472 387 l 472 623 q 615 692 472 692 l 615 387 l 739 387 z "},"5":{"ha":814,"x_min":98,"x_max":728,"o":"m 256 139 q 390 91 297 91 q 515 142 465 91 q 570 290 570 198 q 504 456 570 394 q 332 515 440 515 l 166 515 l 166 1021 l 680 1021 q 672 924 680 946 q 606 878 655 878 l 271 878 l 271 620 l 375 620 q 640 521 543 620 q 728 298 728 431 q 633 71 728 156 q 393 -14 541 -13 q 195 50 283 -14 q 98 231 98 121 q 129 306 98 275 q 203 336 159 336 q 277 306 247 336 q 307 230 307 275 q 256 139 307 185 z "},"6":{"ha":814,"x_min":74,"x_max":756,"o":"m 569 882 q 449 930 528 930 l 448 930 q 300 831 362 930 q 232 549 232 723 q 370 616 279 597 q 458 623 404 623 q 570 602 513 623 q 669 538 628 581 q 756 300 756 451 q 650 71 756 161 q 426 -14 551 -14 q 74 481 74 -14 q 197 905 74 755 q 446 1034 304 1034 l 448 1034 q 708 895 650 1034 q 727 808 727 849 q 719 748 727 768 q 696 715 711 729 q 623 684 666 684 q 549 715 579 684 q 519 790 519 746 q 569 882 519 856 m 423 519 q 353 507 384 519 q 297 476 321 495 q 232 391 251 440 q 279 189 232 277 q 416 91 332 91 q 546 151 495 91 q 598 311 598 212 q 551 454 598 395 q 423 519 499 518 z "},"7":{"ha":814,"x_min":62,"x_max":770,"o":"m 412 0 q 334 -14 412 -14 q 254 0 254 -14 q 479 688 290 377 q 610 888 538 785 l 178 888 l 153 804 q 123 791 149 791 q 62 824 66 791 l 87 1021 l 747 1021 q 770 977 770 1021 l 670 802 q 535 528 576 634 q 471 345 493 422 q 412 0 428 191 z "},"8":{"ha":814,"x_min":63,"x_max":755,"o":"m 63 266 q 242 567 63 425 q 159 654 183 616 q 111 814 111 730 q 195 968 111 903 q 410 1034 281 1034 q 635 966 549 1034 q 713 817 713 904 q 618 582 713 689 q 567 528 593 552 q 694 438 661 477 q 741 361 727 399 q 755 266 755 323 q 727 155 755 208 q 654 64 700 102 q 424 -14 558 -14 q 153 65 248 -14 q 63 264 63 139 l 63 266 m 330 516 q 221 280 221 399 q 273 144 221 197 q 414 91 326 91 q 550 149 496 91 q 597 248 597 199 q 577 330 597 296 q 523 395 558 363 q 330 516 470 441 m 476 576 q 574 785 574 703 l 574 787 q 525 891 574 850 q 410 930 479 930 q 290 891 334 929 q 248 814 248 856 q 267 742 248 772 q 316 684 285 711 q 476 576 364 640 z "},"9":{"ha":814,"x_min":62,"x_max":745,"o":"m 250 139 q 384 91 290 91 q 526 182 471 91 q 587 472 587 284 q 448 404 543 423 q 361 397 415 397 q 248 419 306 397 q 149 483 191 441 q 62 720 62 570 q 168 950 62 860 q 393 1034 267 1034 q 745 539 745 1034 q 529 18 745 118 q 393 -14 461 -14 q 273 2 324 -14 q 182 49 222 18 q 92 229 92 117 l 92 231 q 122 306 92 275 q 196 336 153 336 q 270 306 240 336 q 300 231 300 275 q 250 139 300 165 m 395 502 q 466 514 435 502 q 521 544 496 525 q 587 629 568 581 q 538 845 586 763 q 402 930 489 930 q 273 869 323 929 q 220 709 220 808 l 220 707 q 267 566 220 625 q 395 502 317 502 z "},"\u0000":{"ha":0,"x_min":0,"x_max":0,"o":""},"\r":{"ha":278,"x_min":0,"x_max":0,"o":""}," ":{"ha":298,"x_min":0,"x_max":0,"o":""},"!":{"ha":404,"x_min":111,"x_max":297,"o":"m 117 43 q 111 81 111 61 q 117 118 111 101 q 136 148 123 136 q 201 176 161 175 q 269 148 240 175 q 297 91 297 121 q 290 43 297 60 q 269 14 282 26 q 201 -14 240 -13 q 117 43 140 -14 m 203 265 q 144 295 144 265 l 112 1013 q 203 1034 112 1034 q 293 1012 293 1034 l 259 293 q 222 267 259 275 q 203 265 212 265 z "},"\"":{"ha":515,"x_min":45,"x_max":469,"o":"m 311 1043 q 363 1072 312 1065 q 386 1074 376 1073 l 393 1074 q 410 1073 400 1074 q 437 1069 423 1072 q 469 1040 469 1061 l 434 773 q 382 753 431 753 q 335 773 337 753 l 311 1043 m 45 1040 q 130 1074 45 1074 q 188 1062 172 1074 q 203 1043 203 1051 l 180 773 q 133 753 178 753 q 93 760 104 753 q 81 773 81 768 l 45 1040 z "},"#":{"ha":807,"x_min":41,"x_max":766,"o":"m 239 719 l 284 1021 q 305 1034 286 1033 q 332 1034 324 1034 q 347 1034 338 1034 q 363 1032 355 1034 q 380 1021 380 1029 l 337 719 l 532 719 l 576 1021 q 597 1034 578 1033 q 624 1034 616 1034 q 639 1034 631 1034 q 655 1032 648 1034 q 673 1021 673 1029 l 629 719 l 739 719 q 764 684 757 719 q 766 668 765 675 l 766 665 q 764 651 766 659 q 760 633 762 642 q 739 614 753 614 l 614 614 l 584 404 l 684 404 q 709 370 703 404 q 711 354 711 361 q 709 336 711 346 q 704 319 707 327 q 684 300 697 300 l 569 300 l 526 0 q 504 -13 525 -12 q 475 -14 482 -14 l 460 -14 q 445 -12 453 -14 q 427 0 427 -10 l 471 300 l 277 300 l 234 0 q 211 -13 233 -12 q 183 -14 190 -14 l 168 -14 q 152 -12 160 -14 q 134 0 134 -10 l 178 300 l 68 300 q 42 335 49 300 q 41 352 41 344 q 42 369 41 359 q 47 385 44 377 q 68 404 56 404 l 193 404 l 224 614 l 125 614 q 99 650 106 614 q 98 666 98 659 q 108 708 98 697 q 125 719 118 719 l 239 719 m 292 404 l 486 404 l 517 614 l 322 614 l 292 404 z "},"$":{"ha":766,"x_min":44,"x_max":717,"o":"m 332 1090 q 380 1109 332 1109 q 429 1090 429 1109 l 429 1004 q 613 951 532 998 q 708 812 708 896 q 678 737 708 768 q 604 707 649 707 q 530 737 560 707 q 500 802 500 768 q 519 876 500 836 q 429 900 482 897 l 429 576 q 616 474 567 513 q 691 393 665 435 q 717 293 717 351 q 695 186 717 234 q 635 103 673 138 q 429 18 559 33 l 429 -96 q 380 -115 429 -115 q 332 -96 332 -115 l 332 14 q 140 68 222 22 q 44 203 44 123 q 75 279 44 248 q 149 309 105 309 q 222 279 193 309 q 252 203 252 248 q 251 191 252 198 l 247 177 q 242 163 245 170 q 239 151 240 156 q 332 119 278 122 l 332 462 q 160 558 207 516 q 91 644 114 600 q 68 747 68 688 q 89 849 68 805 q 145 924 109 892 q 332 1000 215 985 l 332 1090 m 563 218 q 574 271 574 243 q 563 320 574 300 q 532 358 551 340 q 429 420 500 387 l 429 125 q 563 218 532 144 m 332 894 q 211 770 211 872 q 332 623 211 688 l 332 894 z "},"%":{"ha":869,"x_min":45,"x_max":825,"o":"m 618 62 q 707 191 707 62 q 659 323 707 291 q 618 335 642 335 q 532 207 532 335 q 579 74 532 107 q 618 62 595 62 m 236 599 q 156 616 190 599 q 100 661 123 633 q 55 802 56 715 q 113 958 55 897 q 262 1021 171 1021 q 399 959 349 1021 q 444 818 444 903 q 386 661 444 723 q 236 599 328 599 m 606 -14 q 526 3 560 -14 q 471 48 494 20 q 425 189 426 103 q 483 346 425 284 q 632 408 541 408 q 769 347 720 408 q 814 205 814 291 q 756 49 814 111 q 606 -14 698 -14 m 718 1021 q 783 1042 732 1042 q 825 1021 825 1042 l 158 0 q 88 -20 143 -20 q 45 0 45 -20 l 718 1021 m 248 673 q 336 801 336 673 q 288 934 336 901 q 248 945 271 945 q 161 817 161 945 q 208 684 161 718 q 248 673 224 673 z "},"&":{"ha":918,"x_min":50,"x_max":897,"o":"m 880 547 q 897 500 897 547 q 873 452 897 452 l 832 452 q 695 178 817 326 l 709 156 q 761 109 730 123 q 840 96 792 96 q 856 52 856 96 q 846 10 856 20 q 829 0 836 0 l 714 0 q 600 70 663 0 q 343 -14 484 -14 q 133 60 214 -14 q 50 255 50 136 q 91 410 50 340 q 224 568 126 470 l 194 616 q 134 814 134 719 q 202 968 134 906 q 400 1034 275 1034 q 599 959 532 1034 q 650 817 650 901 q 607 662 650 736 q 461 484 567 593 l 634 255 q 713 441 713 370 q 705 452 713 452 l 621 452 q 594 488 601 452 q 593 507 593 498 q 610 547 593 547 l 880 547 m 288 483 q 208 287 208 404 q 251 141 209 194 q 347 91 291 91 q 538 153 456 91 l 288 483 m 399 570 q 511 805 511 669 q 448 920 510 890 q 398 930 427 929 l 395 930 q 345 922 368 930 q 304 899 320 913 q 271 833 271 870 q 281 764 271 795 q 309 699 292 732 q 399 570 338 647 z "},"'":{"ha":257,"x_min":50,"x_max":208,"o":"m 50 1040 q 128 1074 50 1074 q 192 1063 176 1074 q 208 1043 208 1053 l 178 773 q 132 753 176 753 q 79 773 81 753 l 50 1040 z "},"(":{"ha":431,"x_min":62,"x_max":380,"o":"m 348 -158 q 326 -162 339 -162 q 298 -154 313 -162 q 81 296 136 20 q 62 493 62 391 q 132 865 62 688 q 298 1136 193 1021 q 327 1142 304 1142 q 364 1127 349 1142 q 380 1095 380 1113 q 214 647 239 853 q 206 495 206 575 q 205 489 205 492 q 214 341 205 412 q 243 195 222 269 q 380 -113 283 53 q 348 -158 380 -143 z "},")":{"ha":432,"x_min":52,"x_max":369,"o":"m 134 -154 q 106 -162 119 -162 q 83 -158 92 -162 q 68 -148 75 -155 q 52 -113 52 -134 q 217 341 193 127 q 226 495 225 414 l 226 501 q 218 648 226 578 q 189 791 209 720 q 52 1095 149 929 q 67 1127 52 1113 q 99 1142 83 1142 q 134 1136 127 1142 q 350 690 297 959 q 369 493 369 597 q 224 -34 369 199 q 134 -154 182 -103 z "},"*":{"ha":458,"x_min":45,"x_max":414,"o":"m 84 1003 l 87 1002 l 187 957 l 176 1064 q 211 1084 176 1078 q 228 1085 220 1085 q 245 1084 235 1085 q 264 1081 256 1084 q 284 1065 284 1076 l 284 1064 l 271 956 l 369 1001 q 376 1002 370 1002 q 389 992 381 1002 q 401 968 396 982 q 414 922 414 941 q 404 898 414 902 l 295 876 l 372 797 q 374 787 374 793 q 366 769 374 781 q 345 749 357 758 q 302 726 315 726 q 287 730 290 726 l 227 829 l 174 732 q 163 728 170 728 q 141 733 155 728 q 115 749 128 739 q 84 789 84 771 q 86 795 84 792 l 160 878 l 54 899 q 45 915 45 901 q 47 942 45 928 q 56 969 50 956 q 84 1003 68 1003 z "},"+":{"ha":707,"x_min":40,"x_max":665,"o":"m 401 110 q 353 96 401 96 q 304 110 304 96 l 304 390 l 68 390 q 42 425 49 390 q 41 442 41 434 q 40 444 40 443 q 42 459 40 451 q 47 476 43 468 q 67 494 55 494 l 304 494 l 304 745 q 353 759 304 759 q 401 745 401 759 l 401 494 l 639 494 q 663 460 656 494 q 665 444 665 452 q 655 402 665 414 q 639 390 646 390 l 401 390 l 401 110 z "},",":{"ha":342,"x_min":50,"x_max":271,"o":"m 122 -11 q 72 77 72 16 q 100 144 72 117 q 159 171 129 171 q 208 163 190 171 q 240 144 227 156 q 271 77 270 117 q 91 -183 271 -43 q 61 -172 71 -183 q 50 -143 50 -161 q 122 -11 122 -62 z "},"-":{"ha":509,"x_min":76,"x_max":433,"o":"m 407 467 q 431 427 425 467 q 433 410 433 418 q 423 361 433 374 q 406 348 413 348 l 103 348 q 77 389 84 348 q 76 407 76 399 q 78 425 76 415 q 83 445 79 435 q 104 467 91 467 l 407 467 z "},".":{"ha":330,"x_min":72,"x_max":258,"o":"m 72 78 q 129 165 72 142 q 166 172 146 172 q 203 165 186 172 q 232 145 220 157 q 258 78 258 118 q 203 -7 258 16 q 166 -14 186 -14 q 129 -7 146 -14 q 99 12 111 0 q 72 78 72 38 z "},"/":{"ha":619,"x_min":23,"x_max":591,"o":"m 479 1089 q 530 1111 513 1111 q 556 1110 547 1111 q 572 1107 564 1109 q 591 1089 591 1101 l 140 -96 q 74 -115 113 -115 q 33 -109 43 -115 q 23 -96 23 -102 l 479 1089 z "},":":{"ha":379,"x_min":96,"x_max":283,"o":"m 96 524 q 123 590 96 563 q 179 616 148 616 l 182 616 q 227 610 210 616 q 256 590 244 602 q 283 526 283 564 l 283 522 q 256 457 283 484 q 199 431 231 431 q 122 457 148 431 q 96 524 96 484 m 96 110 q 123 178 96 151 q 178 205 149 205 l 179 205 q 227 197 210 204 q 256 178 244 190 q 283 112 283 151 l 283 108 q 256 43 283 70 q 200 18 231 18 q 197 17 199 17 q 152 24 169 17 q 123 43 135 31 q 96 110 96 71 z "},";":{"ha":389,"x_min":75,"x_max":295,"o":"m 202 431 q 126 457 152 431 q 100 524 100 483 q 155 610 100 587 q 193 616 172 616 q 229 610 212 616 q 259 590 247 602 q 286 526 286 564 l 286 522 q 259 457 286 484 q 202 431 233 431 m 146 -11 q 96 77 96 16 q 125 144 96 117 q 184 171 153 171 q 233 163 214 171 q 264 144 251 156 q 295 77 294 117 q 115 -183 295 -43 q 85 -172 96 -183 q 75 -143 75 -161 q 146 -11 146 -62 z "},"<":{"ha":729,"x_min":38,"x_max":656,"o":"m 224 435 l 656 133 q 614 65 656 81 l 72 378 q 38 435 38 399 q 74 496 38 475 l 610 796 q 652 747 642 786 q 656 724 655 735 l 224 435 z "},"=":{"ha":790,"x_min":80,"x_max":708,"o":"m 682 621 q 707 587 700 621 q 708 570 708 578 q 707 553 708 563 q 701 536 704 544 q 682 517 694 517 l 108 517 q 81 552 88 517 q 80 568 80 561 q 90 610 80 600 q 108 621 100 621 l 682 621 m 682 368 q 707 334 700 368 q 708 318 708 326 q 707 300 708 310 q 701 283 704 291 q 682 264 694 264 l 111 264 q 84 299 91 264 q 83 316 83 308 q 84 333 83 323 q 90 350 86 342 q 110 368 98 368 l 682 368 z "},">":{"ha":728,"x_min":73,"x_max":691,"o":"m 73 724 q 99 785 73 763 q 119 796 107 793 l 655 496 q 691 435 691 475 q 657 378 691 399 l 115 65 q 73 133 73 81 l 505 435 l 73 724 z "},"?":{"ha":642,"x_min":38,"x_max":599,"o":"m 212 922 q 228 869 228 895 q 220 826 228 843 q 200 796 213 808 q 142 769 172 769 q 95 776 113 769 q 65 796 78 784 q 38 859 38 823 q 53 920 38 895 q 92 963 68 945 q 147 996 117 982 q 208 1017 177 1009 q 328 1034 269 1034 l 329 1034 q 438 1015 386 1034 q 526 962 491 995 q 599 791 598 895 q 519 608 599 690 q 441 538 484 571 l 353 469 l 353 302 q 311 262 353 271 q 285 259 298 259 q 221 302 221 259 l 221 485 q 273 528 245 507 l 325 568 q 409 651 386 618 q 452 778 452 714 q 409 888 452 846 q 296 930 367 929 q 212 922 241 930 m 218 13 q 211 19 218 13 q 198 43 205 26 q 191 81 191 60 q 198 118 191 101 q 218 148 205 136 q 276 176 246 175 l 278 176 q 323 168 306 176 q 353 148 340 160 q 380 91 380 121 q 373 43 380 60 q 353 14 366 26 q 295 -14 325 -14 q 248 -6 265 -14 q 218 13 231 1 z "},"@":{"ha":1250,"x_min":46,"x_max":1194,"o":"m 630 694 q 788 669 698 694 l 815 704 q 823 705 819 705 l 833 705 q 904 681 873 705 q 917 665 913 674 l 880 519 l 880 128 q 886 98 880 104 q 922 88 895 88 q 976 105 948 88 q 1028 156 1004 122 q 1084 345 1084 236 q 1053 537 1084 454 q 964 682 1023 620 q 631 814 840 814 q 292 682 420 814 q 158 304 158 545 q 282 -12 159 110 q 602 -136 408 -136 q 914 -57 795 -136 q 966 -114 945 -71 q 973 -137 971 -126 q 618 -237 826 -237 q 202 -95 354 -237 q 46 311 46 52 q 215 752 46 581 q 473 899 321 859 q 654 919 549 919 q 863 876 759 919 q 1040 758 967 833 q 1194 359 1194 602 q 1106 100 1194 206 q 883 -7 1017 -7 l 881 -7 q 784 28 811 -7 q 768 58 774 40 q 625 -7 711 12 q 560 -14 593 -14 q 312 347 312 -14 q 406 600 312 502 q 630 694 495 694 m 588 91 q 747 159 666 91 l 747 546 q 620 590 691 590 q 468 465 513 590 q 451 347 451 418 q 462 228 451 276 q 491 149 473 179 q 588 91 526 91 z "},"A":{"ha":966,"x_min":-8,"x_max":979,"o":"m 9 0 q -8 39 -8 0 q 8 90 -8 74 q 33 96 14 96 q 98 134 83 96 l 444 1021 q 470 1034 449 1034 q 521 1021 515 1034 l 882 96 l 962 96 q 979 55 979 96 q 969 11 979 21 q 953 0 960 0 l 624 0 q 607 37 607 0 q 617 84 607 73 q 635 96 627 96 q 719 112 719 96 q 713 129 719 118 l 633 338 l 289 338 l 195 96 l 311 96 q 329 56 329 96 q 320 11 329 21 q 304 0 311 0 l 9 0 m 329 443 l 593 443 l 462 785 l 329 443 z "},"B":{"ha":901,"x_min":50,"x_max":847,"o":"m 460 -7 l 290 0 l 85 0 q 68 39 68 0 q 87 91 68 72 q 108 96 92 96 l 111 96 q 116 96 113 96 q 148 98 132 96 q 178 102 168 99 q 197 125 197 109 l 197 914 q 189 925 197 925 l 78 925 q 52 962 58 925 q 50 981 50 971 q 68 1021 50 1021 l 416 1021 q 785 771 785 1021 q 729 632 785 694 q 597 552 675 573 q 780 468 712 536 q 847 297 847 400 q 633 16 847 81 q 460 -7 559 -7 m 340 202 q 367 123 340 149 q 458 98 394 98 q 564 107 521 98 q 635 140 608 117 q 689 296 689 184 q 600 449 689 393 q 414 497 523 497 l 340 497 l 340 202 m 444 602 q 611 682 570 602 q 627 762 627 712 q 608 842 627 811 q 552 890 589 873 q 340 916 493 916 l 340 602 l 444 602 z "},"C":{"ha":864,"x_min":69,"x_max":821,"o":"m 627 905 q 522 930 587 930 q 403 903 457 930 q 311 828 350 877 q 227 558 228 724 q 396 126 227 214 q 505 98 450 98 q 507 98 506 98 q 595 107 562 98 q 654 129 628 116 q 701 155 681 141 q 751 182 741 182 q 770 174 760 182 q 787 156 779 167 q 806 115 806 132 q 793 85 806 96 q 754 57 781 74 q 690 24 728 39 q 503 -14 599 -14 q 330 16 406 -14 q 195 110 254 47 q 69 498 69 247 q 201 902 69 760 q 525 1034 323 1034 l 527 1034 q 722 983 633 1034 q 821 842 821 926 q 791 767 821 798 q 717 737 762 737 q 643 767 673 737 q 612 839 612 798 q 627 905 612 880 z "},"D":{"ha":1029,"x_min":50,"x_max":958,"o":"m 50 978 q 67 1021 50 1021 l 462 1021 q 848 892 730 1021 q 958 514 958 772 l 958 512 q 803 119 958 254 q 462 0 666 1 l 87 0 q 68 39 68 0 q 86 90 68 70 q 109 96 91 96 q 146 98 127 96 q 178 102 167 99 q 197 125 197 109 l 197 916 q 189 925 197 925 l 77 925 q 52 960 58 925 q 50 978 50 970 m 340 104 l 439 104 q 686 199 585 104 q 800 490 800 305 q 602 890 800 808 q 456 916 538 916 l 340 916 l 340 104 z "},"E":{"ha":873,"x_min":50,"x_max":842,"o":"m 654 378 q 605 350 654 350 q 556 368 556 350 l 556 471 l 340 471 l 340 104 l 699 104 l 751 205 q 777 218 758 218 q 805 216 795 218 q 823 211 815 214 q 842 191 842 203 q 841 186 842 187 l 779 0 l 87 0 q 68 40 68 0 q 85 91 69 75 q 107 96 91 96 l 109 96 q 115 96 112 96 q 147 98 131 96 q 178 102 167 99 q 197 125 197 109 l 197 916 q 189 925 197 925 l 77 925 q 52 960 58 925 q 50 978 50 970 q 67 1021 50 1021 l 813 1021 l 813 823 q 766 800 813 800 q 718 815 718 800 q 703 888 718 872 q 606 916 676 916 l 340 916 l 340 575 l 512 575 q 549 590 543 575 q 557 677 557 612 q 598 693 557 693 q 644 684 633 693 q 654 668 654 674 l 654 378 z "},"F":{"ha":838,"x_min":50,"x_max":813,"o":"m 654 378 q 605 350 654 350 q 556 368 556 350 l 556 471 l 340 471 l 340 96 l 486 96 q 503 54 503 96 q 493 11 503 22 q 475 0 483 0 l 87 0 q 68 40 68 0 q 85 91 69 75 q 107 96 91 96 l 109 96 q 115 96 112 96 q 147 98 131 96 q 178 102 167 99 q 197 125 197 109 l 197 916 q 189 925 197 925 l 77 925 q 52 960 58 925 q 50 978 50 970 q 67 1021 50 1021 l 813 1021 l 813 823 q 766 800 813 800 q 718 815 718 800 q 703 888 718 872 q 606 916 676 916 l 340 916 l 340 575 l 512 575 q 549 590 543 575 q 557 677 557 612 q 598 693 557 693 q 644 684 633 693 q 654 668 654 674 l 654 378 z "},"G":{"ha":924,"x_min":68,"x_max":884,"o":"m 867 429 q 884 381 884 429 q 861 333 884 333 l 812 333 l 812 100 q 708 30 755 51 q 489 -14 608 -14 q 279 50 376 -14 q 83 353 129 149 q 68 527 68 420 q 103 734 68 633 q 199 902 138 836 q 522 1034 319 1034 l 528 1034 q 740 983 652 1034 q 836 842 836 928 q 806 767 836 798 q 732 737 777 737 q 659 767 688 737 q 628 840 628 798 q 639 906 628 881 q 522 930 587 930 q 401 903 456 930 q 309 828 349 877 q 226 558 227 724 l 226 555 q 393 126 226 214 q 522 98 447 98 q 524 98 524 98 q 669 126 601 98 l 669 322 q 661 333 669 333 l 550 333 q 524 370 530 334 q 522 389 522 380 q 540 429 522 429 l 867 429 z "},"H":{"ha":1093,"x_min":50,"x_max":1042,"o":"m 454 96 q 471 54 471 96 q 461 11 471 22 q 444 0 451 0 l 83 0 q 67 39 67 0 l 67 41 q 85 91 67 73 q 107 96 91 96 l 109 96 q 115 96 112 96 q 147 98 131 96 q 178 102 167 99 q 197 125 197 109 l 197 914 q 188 925 197 925 l 77 925 q 52 961 58 925 q 50 979 50 970 q 67 1021 50 1021 l 469 1021 q 486 973 486 1021 q 462 925 486 925 l 340 925 l 340 575 l 753 575 l 753 914 q 745 925 753 925 l 634 925 q 608 961 614 925 q 606 979 606 970 q 625 1021 606 1021 l 1025 1021 q 1042 973 1042 1021 q 1019 925 1042 925 l 897 925 l 897 96 l 1010 96 q 1029 54 1029 96 q 1018 11 1029 21 q 1001 0 1008 0 l 641 0 q 625 39 625 0 q 643 91 625 73 q 665 96 648 96 l 667 96 q 673 96 669 96 q 705 98 688 96 q 734 102 724 99 q 753 125 753 109 l 753 471 l 340 471 l 340 96 l 454 96 z "},"I":{"ha":536,"x_min":50,"x_max":486,"o":"m 454 96 q 472 54 472 96 q 462 11 472 22 q 444 0 452 0 l 83 0 q 68 39 68 0 q 87 91 68 72 q 108 96 92 96 l 111 96 q 116 96 113 96 q 148 98 132 96 q 178 102 168 99 q 197 125 197 109 l 197 914 q 189 925 197 925 l 78 925 q 52 962 58 925 q 50 981 50 971 q 68 1021 50 1021 l 469 1021 q 486 973 486 1021 q 463 925 486 925 l 340 925 l 340 96 l 454 96 z "},"J":{"ha":513,"x_min":-36,"x_max":474,"o":"m 457 1021 q 474 973 474 1021 q 450 925 474 925 l 328 925 l 328 46 q 260 -184 328 -81 q 140 -283 213 -254 q 70 -298 102 -298 q 20 -292 37 -298 q -9 -273 3 -285 q -36 -208 -36 -246 l -36 -205 q 20 -118 -36 -141 q 57 -111 37 -111 q 136 -157 108 -111 q 185 0 185 -126 l 185 914 q 176 925 185 925 l 66 925 q 39 962 46 925 q 38 981 38 971 q 56 1021 38 1021 l 457 1021 z "},"K":{"ha":1008,"x_min":50,"x_max":1006,"o":"m 454 96 q 472 54 472 96 q 462 11 472 22 q 444 0 452 0 l 83 0 q 68 39 68 0 q 87 91 68 72 q 108 96 92 96 l 111 96 q 116 96 113 96 q 148 98 132 96 q 178 102 168 99 q 197 125 197 109 l 197 914 q 189 925 197 925 l 78 925 q 52 962 58 925 q 50 981 50 971 q 68 1021 50 1021 l 434 1021 q 451 973 451 1021 q 427 925 451 925 l 340 925 l 340 96 l 454 96 m 990 96 q 1006 52 1006 96 q 997 10 1006 20 q 980 0 987 0 l 865 0 q 770 42 818 0 q 746 69 757 54 l 386 540 l 742 925 l 652 925 q 635 964 635 925 q 644 1010 635 1000 q 659 1021 653 1021 l 956 1021 q 972 982 972 1021 q 956 930 972 947 q 940 925 951 925 q 917 923 928 925 q 897 916 905 920 q 871 896 884 909 l 562 545 l 860 156 q 913 110 884 125 q 990 96 943 96 z "},"L":{"ha":802,"x_min":50,"x_max":802,"o":"m 469 1021 q 486 973 486 1021 q 462 925 486 925 l 340 925 l 340 104 l 658 104 l 710 205 q 736 218 717 218 q 764 216 754 218 q 783 211 774 214 q 802 191 802 203 q 801 186 802 187 l 738 0 l 83 0 q 67 40 67 0 l 67 42 q 85 91 67 73 q 107 96 91 96 l 109 96 q 115 96 112 96 q 147 98 131 96 q 178 102 167 99 q 197 125 197 109 l 197 914 q 188 925 197 925 l 77 925 q 52 962 58 925 q 50 979 50 971 q 50 983 50 981 q 51 994 50 989 q 54 1006 52 1001 q 67 1021 58 1020 l 469 1021 z "},"M":{"ha":1335,"x_min":50,"x_max":1285,"o":"m 415 96 q 433 54 433 96 q 422 11 433 22 q 405 0 412 0 l 85 0 q 68 39 68 0 q 87 91 68 72 q 108 96 92 96 l 111 96 q 116 96 113 96 q 148 98 132 96 q 178 102 168 99 q 197 125 197 109 l 197 914 q 189 925 197 925 l 78 925 q 52 962 58 925 q 50 981 50 971 q 68 1021 50 1021 l 270 1021 q 298 1001 289 1021 l 670 217 l 996 1007 q 1014 1021 1002 1021 l 1268 1021 q 1285 973 1285 1021 q 1261 925 1285 925 l 1139 925 l 1139 96 l 1253 96 q 1271 54 1271 96 q 1261 11 1271 22 q 1243 0 1251 0 l 884 0 q 867 39 867 0 q 886 91 867 72 q 907 96 891 96 l 909 96 q 915 96 912 96 q 947 98 930 96 q 977 102 966 99 q 996 125 996 109 l 996 759 l 692 0 q 665 -8 684 -8 q 614 0 628 -8 l 302 694 l 302 96 l 415 96 z "},"N":{"ha":1131,"x_min":50,"x_max":1091,"o":"m 50 981 q 68 1021 50 1021 l 304 1021 l 842 234 l 842 914 q 833 925 842 925 l 722 925 q 696 962 703 925 q 694 981 694 971 q 712 1021 694 1021 l 1074 1021 q 1091 973 1091 1021 q 1067 925 1091 925 l 946 925 l 946 -1 q 896 -14 946 -14 q 840 -1 848 -14 l 302 764 l 302 96 l 416 96 q 434 54 434 96 q 424 10 434 20 q 406 0 414 0 l 85 0 q 68 39 68 0 q 87 91 68 72 q 108 96 92 96 l 111 96 q 116 96 113 96 q 148 98 132 96 q 178 102 168 99 q 197 125 197 109 l 197 914 q 189 925 197 925 l 78 925 q 52 962 58 925 q 50 981 50 971 z "},"O":{"ha":1018,"x_min":69,"x_max":948,"o":"m 498 -14 q 331 16 408 -14 q 195 109 254 47 q 69 496 69 245 q 199 901 69 758 q 525 1034 321 1034 q 840 888 730 1034 q 948 486 948 746 q 812 104 948 237 q 498 -14 693 -14 m 394 127 q 511 98 448 98 q 622 119 572 98 q 709 186 671 140 q 792 494 792 287 q 709 798 792 674 q 503 922 625 922 q 307 824 384 922 q 225 558 225 722 q 394 127 225 216 z "},"P":{"ha":828,"x_min":50,"x_max":787,"o":"m 491 96 q 509 54 509 96 q 498 11 509 22 q 481 0 488 0 l 83 0 q 67 38 67 0 l 67 40 q 85 91 67 73 q 107 96 91 96 l 109 96 q 115 96 112 96 q 147 98 131 96 q 178 102 167 99 q 197 125 197 109 l 197 915 q 188 925 197 925 l 77 925 q 52 962 58 925 q 50 981 50 971 q 68 1021 50 1021 l 445 1021 q 694 945 602 1020 q 787 739 787 870 q 340 427 787 427 l 340 96 l 491 96 m 340 531 q 546 566 482 532 q 629 722 629 610 l 629 724 q 562 878 629 836 q 340 916 499 916 l 340 531 z "},"Q":{"ha":1019,"x_min":70,"x_max":1176,"o":"m 922 -298 q 502 -14 676 -298 l 496 -14 q 195 110 309 -14 q 70 493 70 245 l 70 496 q 200 901 70 758 q 526 1034 321 1034 q 841 888 731 1034 q 949 486 949 746 q 785 79 949 208 q 675 17 734 39 q 941 -193 787 -193 q 1109 -136 1015 -193 q 1122 -134 1114 -134 q 1138 -140 1128 -134 q 1157 -157 1149 -146 q 1176 -201 1176 -180 q 1161 -232 1176 -222 q 1124 -254 1146 -243 q 1071 -275 1101 -266 q 927 -298 1002 -298 l 922 -298 m 395 127 q 511 98 449 98 q 623 119 573 98 q 710 186 672 140 q 793 494 793 287 q 709 798 792 674 q 503 922 625 922 q 307 824 384 922 q 226 561 226 722 l 226 558 q 395 127 226 216 z "},"R":{"ha":919,"x_min":50,"x_max":926,"o":"m 491 96 q 509 54 509 96 q 498 11 509 22 q 481 0 488 0 l 83 0 q 67 38 67 0 l 67 40 q 85 91 67 73 q 107 96 91 96 l 109 96 q 115 96 112 96 q 147 98 131 96 q 178 102 167 99 q 197 125 197 109 l 197 915 q 188 925 197 925 l 77 925 q 52 962 58 925 q 50 981 50 971 q 68 1021 50 1021 l 445 1021 q 694 945 602 1020 q 787 739 787 870 q 589 463 787 534 l 779 156 q 831 109 800 123 q 909 96 862 96 q 926 52 926 96 q 916 10 926 20 q 899 0 906 0 l 784 0 q 688 41 732 0 q 665 69 675 53 l 443 431 q 340 427 400 427 l 340 96 l 491 96 m 340 531 q 546 566 482 532 q 629 722 629 610 l 629 724 q 562 878 629 836 q 340 916 499 916 l 340 531 z "},"S":{"ha":798,"x_min":56,"x_max":730,"o":"m 245 115 q 355 91 290 91 q 459 103 420 91 q 526 136 498 114 q 587 256 586 181 l 587 256 q 448 422 587 342 q 362 467 408 445 l 265 517 q 80 778 80 614 q 182 972 80 903 q 413 1034 273 1034 l 419 1034 q 613 987 524 1034 q 720 842 720 932 q 690 767 720 798 q 616 737 661 737 q 543 767 572 737 q 512 842 512 798 q 532 905 512 878 q 436 930 492 930 q 343 920 380 930 q 279 891 307 910 q 223 781 224 852 l 223 779 q 282 684 223 726 q 353 640 311 662 l 444 593 q 654 455 594 518 q 730 268 730 377 q 632 65 730 143 q 385 -14 534 -14 q 171 35 269 -14 q 56 176 56 91 q 87 252 56 221 q 161 282 117 282 q 235 252 205 282 q 264 184 264 220 q 245 115 264 149 z "},"T":{"ha":865,"x_min":12,"x_max":851,"o":"m 617 96 q 635 50 635 96 q 625 11 635 21 q 608 0 614 0 l 248 0 q 231 39 231 0 q 250 91 231 73 q 271 96 255 96 l 273 96 q 279 96 276 96 q 311 98 295 96 q 342 102 331 99 q 360 125 360 108 l 360 916 l 133 916 l 103 816 q 69 798 97 798 q 18 819 35 799 q 12 833 12 826 l 12 836 l 38 1021 l 825 1021 l 851 836 l 851 833 q 814 800 851 808 q 797 798 806 798 l 793 798 q 760 816 766 798 l 730 916 l 503 916 l 503 96 l 617 96 z "},"U":{"ha":1048,"x_min":28,"x_max":1015,"o":"m 876 376 q 524 -14 876 -14 q 251 90 334 -14 q 175 386 175 184 l 175 914 q 166 925 175 925 l 56 925 q 30 962 37 925 q 28 979 28 971 q 45 1021 28 1021 l 433 1021 q 450 973 450 1021 q 427 925 450 925 l 318 925 l 318 392 q 450 113 318 161 q 545 98 491 98 q 642 116 600 98 q 711 169 684 133 q 764 390 764 239 l 764 914 q 755 925 764 925 l 657 925 q 631 962 637 925 q 629 981 629 971 q 647 1021 629 1021 l 997 1021 q 1015 977 1015 1021 q 1005 935 1015 945 q 990 925 996 925 l 876 925 l 876 376 z "},"V":{"ha":967,"x_min":-13,"x_max":975,"o":"m 958 1021 q 975 982 975 1021 q 958 930 975 947 q 933 925 952 925 q 868 886 882 925 l 527 0 q 486 -14 522 -14 q 446 0 452 -14 l 79 925 l 5 925 q -13 966 -13 925 q -3 1010 -13 999 q 14 1021 6 1021 l 342 1021 q 359 983 359 1021 q 349 936 359 947 q 332 925 338 925 q 248 909 248 925 q 253 892 248 903 l 505 236 l 759 925 l 655 925 q 637 964 637 925 q 647 1010 637 1000 q 662 1021 656 1021 l 958 1021 z "},"W":{"ha":1396,"x_min":-25,"x_max":1389,"o":"m 1372 1021 q 1389 982 1389 1021 q 1373 930 1389 947 q 1348 925 1367 925 q 1282 886 1298 925 l 1004 0 q 977 -14 1000 -14 q 923 0 928 -14 l 699 575 l 511 0 q 473 -14 507 -14 q 433 0 440 -14 l 66 925 l -7 925 q -25 966 -25 925 q -16 1010 -25 999 q 1 1021 -6 1021 l 330 1021 q 347 983 347 1021 q 337 936 347 947 q 319 925 326 925 q 235 909 235 925 q 241 892 235 903 l 485 255 l 640 724 l 562 925 l 482 925 q 465 966 465 925 q 474 1010 465 999 q 491 1021 484 1021 l 820 1021 q 837 983 837 1021 q 826 936 837 947 q 809 925 816 925 q 725 909 725 925 q 730 892 725 903 l 974 255 l 1175 925 l 1069 925 q 1052 964 1052 925 q 1061 1010 1052 1000 q 1076 1021 1070 1021 l 1372 1021 z "},"X":{"ha":938,"x_min":12,"x_max":929,"o":"m 911 96 q 929 54 929 96 q 919 11 929 22 q 901 0 909 0 l 543 0 q 525 41 525 0 q 544 91 525 73 q 553 96 549 96 l 641 96 l 438 419 l 252 116 q 247 104 247 109 q 259 96 247 96 l 330 96 q 348 55 348 96 q 338 11 348 22 q 320 0 328 0 l 29 0 q 12 41 12 0 q 29 91 12 73 q 48 96 34 96 q 79 99 62 96 q 107 107 96 102 q 139 133 126 115 l 376 519 l 121 925 l 39 925 q 20 964 20 925 q 30 1009 20 998 q 47 1021 40 1021 l 393 1021 q 409 982 409 1021 q 398 936 409 946 q 380 925 388 925 q 305 910 305 925 q 311 893 305 905 l 486 614 l 701 925 l 589 925 q 572 965 572 925 q 581 1010 572 1000 q 596 1021 590 1021 l 895 1021 q 911 981 911 1021 q 901 936 911 947 q 884 925 891 925 q 810 896 836 925 l 547 516 l 784 138 q 875 96 807 100 q 900 96 888 96 l 911 96 z "},"Y":{"ha":871,"x_min":-21,"x_max":882,"o":"m 182 0 q 165 39 165 0 l 165 41 q 183 91 165 73 q 193 96 188 96 l 295 96 q 366 113 357 96 q 369 125 369 118 l 369 379 l 73 925 l -3 925 q -21 966 -21 925 q -12 1010 -21 999 q 5 1021 -2 1021 l 340 1021 q 357 982 357 1021 q 347 936 357 947 q 329 925 336 925 q 257 901 257 925 q 261 886 257 895 l 454 498 l 669 925 l 563 925 q 545 964 545 925 q 554 1010 545 1000 q 570 1021 564 1021 l 865 1021 q 882 982 882 1021 q 866 930 882 947 q 841 925 860 925 q 781 896 796 925 l 512 379 l 512 96 l 678 96 q 696 54 696 96 q 686 11 696 22 q 668 0 675 0 l 182 0 z "},"Z":{"ha":868,"x_min":54,"x_max":822,"o":"m 54 51 l 612 916 l 175 916 l 145 816 q 111 798 139 798 q 60 819 77 799 q 54 833 54 826 l 54 836 l 80 1021 l 815 1021 l 813 975 l 254 104 l 678 104 l 730 205 q 756 218 737 218 q 785 216 774 218 q 803 211 795 214 q 822 191 822 203 q 821 186 822 187 l 758 0 l 54 0 l 54 51 z "},"[":{"ha":444,"x_min":125,"x_max":439,"o":"m 416 -13 q 437 -60 437 -13 q 416 -109 437 -109 l 125 -109 l 125 1133 l 416 1133 q 439 1086 439 1133 q 416 1038 439 1038 l 258 1038 l 258 -13 l 416 -13 z "},"\\":{"ha":619,"x_min":28,"x_max":596,"o":"m 28 1089 q 79 1111 28 1111 q 140 1089 106 1111 l 596 -96 q 545 -115 596 -115 q 479 -96 507 -115 l 28 1089 z "},"]":{"ha":444,"x_min":5,"x_max":318,"o":"m 27 1038 q 5 1086 5 1038 q 27 1133 5 1133 l 318 1133 l 318 -109 l 27 -109 q 7 -60 7 -109 q 27 -13 7 -13 l 186 -13 l 186 1038 l 27 1038 z "},"^":{"ha":800,"x_min":40,"x_max":758,"o":"m 92 566 q 40 624 40 566 l 347 956 q 391 979 368 979 q 447 956 425 979 l 758 623 q 745 581 758 597 q 707 566 731 566 l 393 840 l 92 566 z "},"_":{"ha":799,"x_min":0,"x_max":799,"o":"m 799 -111 l 799 -195 l 0 -195 l 0 -111 l 799 -111 z "},"`":{"ha":722,"x_min":143,"x_max":429,"o":"m 143 965 q 204 1065 143 1039 q 241 1072 221 1072 l 244 1072 l 429 879 q 415 834 429 850 q 363 806 391 806 l 143 965 z "},"a":{"ha":709,"x_min":47,"x_max":723,"o":"m 256 597 q 264 557 264 579 q 258 517 264 534 q 237 488 250 500 q 172 462 212 463 q 85 517 109 462 q 79 559 79 534 q 93 606 79 584 q 131 643 107 627 q 183 668 154 659 q 243 683 213 677 q 361 692 297 692 q 470 672 424 692 q 544 617 517 652 q 591 446 591 557 l 591 96 l 705 96 q 723 56 723 96 q 716 21 723 38 q 695 0 709 3 q 587 -11 657 -11 q 507 -8 515 -11 q 492 0 499 -6 q 467 47 479 12 q 267 -14 384 -14 q 103 42 163 -14 q 47 177 47 94 l 47 179 q 123 341 47 283 q 291 393 191 393 l 458 393 q 440 539 458 506 q 395 584 421 572 q 326 597 369 597 l 256 597 m 292 91 q 458 159 377 91 l 458 291 l 311 291 q 231 273 256 291 q 184 197 184 240 q 250 97 184 117 q 292 91 270 91 z "},"b":{"ha":745,"x_min":-47,"x_max":690,"o":"m 232 140 q 359 95 296 95 q 533 218 489 95 q 551 341 551 267 q 534 460 551 415 q 492 529 517 503 q 383 574 447 574 q 269 541 324 574 q 232 511 248 529 l 232 140 m 232 637 q 399 692 326 692 q 524 669 473 692 q 612 600 575 644 q 690 346 690 505 l 690 340 q 595 81 690 177 q 368 -9 507 -9 q 245 31 313 -9 q 218 47 229 41 l 170 -11 q 153 -15 163 -15 q 100 1 133 -15 q 69 30 71 16 l 100 153 l 100 956 l -20 956 q -46 991 -39 956 q -47 1011 -47 1000 q -30 1048 -47 1041 q 18 1060 -12 1055 q 81 1067 48 1065 q 201 1074 144 1073 q 232 1016 231 1074 l 232 637 z "},"c":{"ha":681,"x_min":56,"x_max":644,"o":"m 444 597 l 381 597 q 260 543 311 597 q 195 346 195 475 q 300 107 195 157 q 368 91 333 91 q 430 98 402 91 q 484 118 458 106 q 536 144 511 130 l 584 174 q 593 176 587 176 q 609 168 600 176 q 627 149 618 160 q 644 106 644 123 q 637 83 644 90 q 355 -14 507 -14 q 133 85 213 -14 q 56 346 56 180 q 154 604 56 509 q 389 692 246 692 q 602 625 543 692 q 624 570 624 600 q 617 524 624 541 q 597 495 609 507 q 531 469 570 469 q 465 495 492 469 q 438 547 438 521 q 444 597 438 572 z "},"d":{"ha":778,"x_min":56,"x_max":779,"o":"m 761 96 q 779 54 779 96 q 768 12 779 24 q 753 0 758 1 q 734 -2 748 0 q 699 -5 720 -3 q 607 -11 640 -11 q 564 -8 574 -11 q 548 0 555 -6 q 522 47 535 11 q 328 -14 439 -14 q 125 85 196 -14 q 56 347 56 180 l 56 349 q 157 606 56 512 q 395 692 250 692 q 515 679 464 692 l 515 956 l 395 956 q 369 989 376 956 q 368 1009 368 998 q 386 1048 368 1042 q 434 1060 404 1055 q 496 1067 464 1065 q 616 1074 559 1073 l 617 1074 q 647 1016 646 1074 l 647 96 l 761 96 m 346 91 q 515 159 433 91 l 515 544 q 387 588 458 588 q 213 465 260 588 q 195 347 195 418 q 210 228 195 276 q 245 149 224 179 q 346 91 288 91 z "},"e":{"ha":706,"x_min":55,"x_max":652,"o":"m 55 349 q 83 498 55 433 q 156 605 110 562 q 387 692 250 692 l 389 692 q 584 613 515 692 q 652 386 652 534 q 623 331 652 354 q 551 309 595 309 l 194 309 q 304 105 206 150 q 370 91 336 91 q 432 99 405 91 q 484 118 459 106 q 533 145 509 130 q 591 176 583 176 q 609 168 600 176 q 625 149 617 160 q 644 106 643 123 l 644 104 q 636 83 644 88 q 354 -14 512 -14 q 133 85 212 -14 q 55 349 55 182 m 513 410 l 513 413 q 435 578 513 547 q 381 588 411 588 q 319 577 351 588 q 259 544 286 566 q 194 410 199 494 l 513 410 z "},"f":{"ha":537,"x_min":43,"x_max":552,"o":"m 63 0 q 45 41 45 0 q 55 85 45 74 q 73 96 65 96 l 79 96 q 169 111 158 96 q 173 125 173 117 l 173 574 l 43 574 q 53 664 43 649 q 73 679 62 679 l 79 679 q 169 694 158 679 q 173 708 173 700 l 173 793 q 294 1050 173 989 q 386 1074 339 1074 q 458 1069 433 1074 q 505 1051 484 1064 q 552 961 552 1022 q 525 894 552 921 q 459 868 499 868 q 373 924 396 868 q 366 961 366 941 l 366 983 l 366 983 q 307 868 311 983 q 305 803 305 836 l 305 679 l 488 679 q 505 639 505 679 q 488 581 505 600 q 475 574 484 574 l 305 574 l 305 96 l 458 96 q 477 54 477 96 q 467 11 477 22 q 449 0 456 0 l 63 0 z "},"g":{"ha":766,"x_min":43,"x_max":765,"o":"m 560 605 q 612 483 612 547 q 586 374 612 419 q 519 298 561 328 q 317 236 436 236 q 267 240 291 236 q 243 189 243 212 q 267 149 243 165 q 329 132 290 132 l 467 132 q 658 75 600 132 q 703 -56 703 30 q 616 -217 703 -148 q 334 -298 514 -298 q 106 -232 187 -298 q 57 -173 72 -204 q 43 -113 43 -142 q 53 -57 43 -83 q 79 -8 62 -31 q 116 35 95 15 l 159 79 q 143 99 151 90 q 129 119 135 109 q 115 181 115 145 q 172 277 115 216 q 99 355 125 307 q 73 462 73 403 q 99 564 73 521 q 167 635 125 607 q 358 689 248 689 q 437 679 398 689 l 686 679 q 761 637 747 679 q 765 611 765 625 q 759 584 765 597 q 743 563 753 571 q 699 545 723 545 q 696 545 697 545 q 662 552 673 545 q 639 570 651 559 q 560 605 606 597 m 175 -93 q 338 -194 175 -194 q 496 -155 430 -194 q 571 -49 571 -113 q 498 24 571 5 q 435 31 472 31 l 250 31 l 227 5 q 175 -93 175 -52 m 216 467 q 249 373 216 406 q 323 340 281 340 q 391 352 366 340 q 434 384 416 363 q 469 483 469 424 l 469 485 q 435 566 469 532 q 361 601 401 601 q 295 591 320 601 q 252 564 270 582 q 216 468 216 528 q 216 467 216 467 z "},"h":{"ha":847,"x_min":-5,"x_max":833,"o":"m 507 96 q 577 125 577 96 l 577 326 q 562 495 577 456 q 524 549 547 533 q 460 565 500 565 q 275 489 370 565 l 275 96 l 389 96 q 406 54 406 96 q 396 11 406 22 q 378 0 386 0 l 33 0 q 15 41 15 0 q 25 85 15 74 q 43 96 35 96 l 50 96 q 138 111 128 96 q 142 125 142 117 l 142 956 l 23 956 q -3 990 4 956 q -5 1010 -4 1000 q 14 1048 -5 1041 q 62 1060 32 1055 q 125 1067 92 1065 q 244 1074 187 1073 q 274 1016 273 1074 q 275 981 274 999 l 275 618 q 450 687 362 668 q 492 692 476 692 q 673 623 625 692 q 709 436 709 570 l 709 96 l 815 96 q 833 54 833 96 q 823 11 833 22 q 805 0 812 0 l 497 0 q 479 41 479 0 q 489 85 479 74 q 507 96 499 96 z "},"i":{"ha":449,"x_min":23,"x_max":434,"o":"m 222 863 q 136 918 159 863 q 129 956 129 935 q 185 1043 129 1020 q 222 1050 202 1050 q 288 1023 261 1050 q 315 956 315 996 q 288 888 315 916 q 222 863 262 863 m 60 0 q 43 41 43 0 q 53 85 43 74 q 71 96 63 96 l 77 96 q 167 111 157 96 q 170 123 170 116 l 170 574 l 51 574 q 24 609 31 575 q 23 629 23 618 q 41 667 23 660 q 90 679 60 674 q 152 686 119 684 q 272 692 214 692 l 273 692 q 302 635 301 692 l 302 96 l 416 96 q 434 54 434 96 q 424 11 434 22 q 406 0 414 0 l 60 0 z "},"j":{"ha":385,"x_min":-62,"x_max":303,"o":"m 98 -157 q 159 0 159 -157 l 159 574 l 39 574 q 14 608 19 575 q 12 627 12 617 q 29 666 12 659 q 260 692 100 692 l 261 692 q 290 635 289 692 q 291 600 290 618 l 291 46 q 229 -184 291 -83 q 31 -298 157 -298 q -56 -243 -33 -298 q -62 -205 -62 -226 q -6 -118 -62 -141 q 31 -111 11 -111 q 98 -157 80 -111 m 210 863 q 123 918 146 863 q 117 956 117 935 q 174 1043 117 1020 q 210 1050 191 1050 q 276 1023 250 1050 q 303 956 303 996 l 303 954 q 277 888 303 915 q 210 863 251 863 z "},"k":{"ha":820,"x_min":-5,"x_max":801,"o":"m 33 0 q 15 41 15 0 q 25 85 15 74 q 43 96 35 96 l 50 96 q 138 111 128 96 q 142 125 142 117 l 142 956 l 23 956 q -3 990 4 956 q -5 1010 -4 1000 q 14 1048 -5 1041 q 62 1060 32 1055 q 125 1067 92 1065 q 244 1074 187 1073 q 274 1016 273 1074 q 275 981 274 999 l 275 96 l 346 96 q 364 54 364 96 q 354 11 364 21 q 336 0 343 0 l 33 0 m 783 96 q 801 53 801 96 q 791 11 801 22 q 773 0 781 0 l 596 0 l 283 407 l 556 679 l 700 679 q 726 644 719 679 q 727 625 727 634 q 709 583 727 583 q 620 573 644 583 q 585 553 596 564 l 437 402 l 674 141 q 783 96 715 96 z "},"l":{"ha":421,"x_min":-5,"x_max":406,"o":"m 33 0 q 15 41 15 0 q 25 85 15 74 q 43 96 35 96 l 50 96 q 138 111 128 96 q 142 125 142 117 l 142 956 l 23 956 q -3 990 4 956 q -5 1010 -4 1000 q 14 1048 -5 1041 q 62 1060 32 1055 q 125 1067 92 1065 q 244 1074 187 1073 q 274 1016 273 1074 q 275 981 274 999 l 275 96 l 389 96 q 406 54 406 96 q 396 11 406 22 q 378 0 386 0 l 33 0 z "},"m":{"ha":1310,"x_min":23,"x_max":1295,"o":"m 1277 96 q 1295 48 1295 96 q 1270 0 1295 0 l 959 0 q 941 41 941 0 q 958 91 941 75 q 968 96 962 96 l 969 96 q 1040 125 1040 96 l 1040 326 q 1025 499 1040 458 q 986 557 1010 540 q 923 574 963 574 q 737 487 848 574 l 737 96 l 842 96 q 861 48 861 96 q 833 0 861 0 l 524 0 q 507 40 507 0 l 507 43 q 524 91 507 74 q 533 96 528 96 l 534 96 q 605 125 605 96 l 605 326 q 590 499 605 458 q 552 557 575 540 q 488 574 528 574 q 302 487 413 574 l 302 96 l 416 96 q 434 56 434 96 q 424 11 434 22 q 406 0 413 0 l 62 0 q 43 39 43 0 q 53 85 43 74 q 71 96 63 96 l 77 96 q 166 111 155 96 q 170 125 170 117 l 170 574 l 51 574 q 24 609 31 575 q 23 627 23 618 q 41 666 23 659 q 87 678 59 673 q 145 686 115 684 q 237 693 206 693 l 239 693 q 275 686 269 692 q 285 669 282 680 q 288 621 288 657 l 288 608 q 475 686 391 665 q 520 692 502 692 q 701 597 646 692 q 905 684 806 658 q 977 692 935 692 q 1062 674 1020 692 q 1128 623 1104 656 q 1172 433 1172 563 l 1172 96 l 1277 96 z "},"n":{"ha":875,"x_min":23,"x_max":861,"o":"m 524 0 q 507 41 507 0 q 517 85 507 74 q 534 96 527 96 q 605 125 605 96 l 605 326 q 590 499 605 458 q 552 557 575 540 q 488 574 528 574 q 302 487 413 574 l 302 96 l 416 96 q 434 54 434 96 q 424 11 434 22 q 406 0 414 0 l 60 0 q 43 41 43 0 q 53 85 43 74 q 71 96 63 96 l 77 96 q 166 111 155 96 q 170 125 170 117 l 170 574 l 51 574 q 24 608 30 575 q 23 627 23 617 q 41 666 23 659 q 87 678 59 673 q 145 686 115 684 q 237 693 206 693 l 239 693 q 275 686 269 692 q 285 669 282 680 q 288 621 288 657 l 288 608 q 475 686 391 665 q 544 692 502 692 q 627 674 585 692 q 694 623 669 656 q 737 433 737 563 l 737 96 l 842 96 q 861 54 861 96 q 850 11 861 22 q 833 0 840 0 l 524 0 z "},"o":{"ha":741,"x_min":54,"x_max":686,"o":"m 351 -14 q 223 14 278 -14 q 130 90 168 41 q 54 347 54 188 q 157 608 54 514 q 393 692 251 692 l 395 692 q 609 591 528 692 q 686 342 686 495 q 591 76 686 171 q 351 -14 502 -14 m 252 541 q 239 527 252 541 q 210 466 227 513 q 193 351 193 419 q 206 233 193 281 q 243 155 220 186 q 372 91 290 91 q 505 165 458 91 q 547 343 547 233 q 439 574 547 527 q 374 588 407 588 q 309 578 340 588 q 252 541 278 568 z "},"p":{"ha":798,"x_min":5,"x_max":743,"o":"m 43 -297 q 24 -256 24 -297 q 35 -212 24 -223 q 52 -201 45 -201 q 149 -186 137 -201 q 153 -172 153 -180 l 153 574 l 33 574 q 7 608 12 575 q 5 628 5 617 q 20 665 5 660 q 59 675 36 670 q 113 684 83 680 q 214 692 176 692 q 258 689 252 692 q 267 678 264 686 q 271 638 271 670 l 271 627 q 419 689 363 680 q 477 693 439 693 l 483 693 q 576 668 525 692 q 664 600 627 644 q 743 343 743 505 q 650 80 743 175 q 420 -9 562 -9 q 305 21 365 -9 q 285 31 292 28 l 285 -201 l 435 -201 q 454 -243 454 -201 q 444 -286 454 -275 q 426 -297 433 -297 l 43 -297 m 285 132 q 412 95 332 95 q 586 218 541 95 q 604 341 604 267 q 587 459 604 414 q 544 529 570 503 q 435 574 499 574 l 433 574 q 321 538 375 574 q 285 506 301 525 l 285 132 z "},"q":{"ha":757,"x_min":56,"x_max":776,"o":"m 355 -298 q 337 -255 337 -298 q 347 -213 337 -224 q 365 -202 357 -202 l 422 -202 q 511 -186 500 -202 q 515 -175 515 -181 l 515 43 q 384 -9 469 6 q 309 -14 357 -14 q 210 12 260 -14 q 125 85 159 38 q 56 347 56 180 l 56 349 q 157 606 56 512 q 394 692 250 692 q 555 667 465 692 l 598 723 q 606 724 602 724 l 616 724 q 687 700 656 724 q 700 684 696 693 l 647 517 l 647 -202 l 758 -202 q 776 -242 776 -202 q 766 -287 776 -276 q 748 -298 755 -298 l 355 -298 m 515 159 l 515 544 q 387 588 458 588 q 213 465 260 588 q 195 347 195 418 q 211 228 195 276 q 250 149 227 179 q 364 91 295 91 q 515 159 433 91 z "},"r":{"ha":611,"x_min":24,"x_max":605,"o":"m 287 642 l 286 615 q 286 599 286 607 q 286 584 286 591 q 445 684 365 656 q 498 692 471 692 l 500 692 q 547 682 526 692 q 582 656 569 671 q 605 600 605 629 q 597 553 605 570 q 576 524 590 536 q 520 498 548 498 q 477 506 492 498 q 450 526 462 513 q 426 583 426 551 q 366 541 387 565 q 332 497 346 517 l 302 451 l 302 96 l 467 96 q 483 54 483 96 q 473 11 483 21 q 455 0 463 0 l 60 0 q 41 43 41 0 q 60 91 42 74 q 83 96 65 96 q 121 97 102 96 q 151 102 140 99 q 170 125 170 109 l 170 572 l 51 572 q 24 625 24 572 q 42 666 24 659 q 87 678 59 673 q 145 686 115 684 q 235 692 202 692 l 241 692 q 274 689 269 692 q 283 680 281 686 q 287 650 287 673 l 287 642 z "},"s":{"ha":628,"x_min":52,"x_max":574,"o":"m 235 91 l 313 91 q 439 149 407 91 q 449 187 449 166 q 439 223 449 208 q 408 252 429 239 q 302 294 376 271 q 189 333 228 317 q 122 373 151 350 q 64 507 64 422 q 204 676 64 633 q 309 692 257 692 q 403 686 359 692 q 483 663 448 679 q 564 556 564 625 l 564 553 q 537 488 564 515 q 471 462 511 463 q 384 517 407 462 q 377 545 377 534 q 385 597 377 556 l 318 597 q 237 578 263 597 q 189 505 189 545 q 283 419 189 452 l 335 401 q 503 328 466 358 q 557 261 541 297 q 574 179 574 225 q 556 98 574 132 q 506 39 538 64 q 324 -14 436 -14 q 146 16 225 -14 q 64 79 88 38 q 52 123 52 99 q 58 163 52 146 q 79 193 66 180 q 145 218 105 218 q 212 192 184 218 q 239 134 239 166 l 239 133 q 235 91 238 99 z "},"t":{"ha":496,"x_min":18,"x_max":479,"o":"m 286 -14 q 147 174 147 -14 l 147 574 l 18 574 q 27 664 18 649 q 47 679 37 679 l 54 679 q 155 694 138 679 q 162 708 161 700 l 191 858 q 279 895 199 895 l 279 679 l 463 679 q 479 639 479 679 q 463 581 479 600 q 450 574 458 574 l 279 574 l 279 174 q 324 98 279 98 q 396 106 375 98 q 426 114 418 114 q 441 109 433 114 q 454 96 449 104 q 466 59 466 78 q 453 33 466 39 q 286 -14 366 -14 z "},"u":{"ha":837,"x_min":14,"x_max":823,"o":"m 566 65 q 371 -14 458 -14 q 151 123 200 -14 q 135 229 135 169 l 135 574 l 39 574 q 14 626 14 574 q 28 663 14 660 q 236 692 142 692 q 267 638 266 692 l 267 279 q 335 121 267 146 q 386 113 355 113 q 443 119 416 113 q 492 136 471 126 q 529 157 513 146 l 558 179 l 558 574 l 465 574 q 437 625 437 574 q 455 664 437 656 q 499 676 473 671 q 553 685 525 681 q 637 692 606 692 l 640 692 q 675 685 669 692 q 686 666 684 678 q 690 606 690 649 l 690 96 l 804 96 q 823 52 823 96 q 795 0 823 4 q 671 -11 726 -11 q 608 -5 617 -11 q 591 9 598 0 q 566 65 581 24 z "},"v":{"ha":743,"x_min":3,"x_max":741,"o":"m 724 679 q 741 640 741 679 q 724 589 741 605 q 708 583 719 583 q 686 582 696 583 q 670 576 677 581 q 653 554 659 570 l 427 0 q 400 -13 422 -12 q 368 -14 378 -14 q 323 0 330 -14 l 96 583 l 20 583 q 3 624 3 583 q 12 668 3 657 q 29 679 22 679 l 323 679 q 340 640 340 679 q 330 594 340 605 q 313 583 320 583 q 253 554 253 583 l 387 182 l 551 583 l 463 583 q 445 623 445 583 q 454 668 445 658 q 469 679 463 679 l 724 679 z "},"w":{"ha":1060,"x_min":5,"x_max":1055,"o":"m 1038 679 q 1055 631 1055 679 q 1027 583 1055 583 q 974 567 985 583 q 968 554 970 562 l 802 0 q 756 -14 798 -14 q 703 0 707 -14 l 543 398 l 381 0 q 356 -13 376 -12 q 329 -14 335 -14 l 313 -14 q 296 -12 304 -14 q 273 0 275 -9 l 110 583 l 22 583 q 5 625 5 583 q 16 668 5 657 q 32 679 26 679 l 326 679 q 343 640 343 679 q 333 594 343 605 q 315 583 323 583 q 256 554 256 583 l 348 146 l 517 614 q 551 627 523 627 q 586 615 581 627 l 758 137 l 866 583 l 777 583 q 760 623 760 583 q 769 668 760 656 q 784 679 778 679 l 1038 679 z "},"x":{"ha":796,"x_min":24,"x_max":772,"o":"m 755 96 q 772 54 772 96 q 762 11 772 22 q 745 0 752 0 l 456 0 q 438 41 438 0 q 457 91 438 73 q 467 96 463 96 l 523 96 l 373 281 l 254 116 q 249 104 249 109 q 261 96 249 96 l 300 96 q 317 55 317 96 q 307 11 317 22 q 290 0 297 0 l 41 0 q 24 41 24 0 q 41 91 24 73 q 67 96 46 96 q 113 107 88 96 q 149 133 137 119 l 315 353 l 130 583 l 47 583 q 29 623 29 583 q 39 668 29 656 q 56 679 49 679 l 352 679 q 368 640 368 679 q 357 594 368 604 q 339 583 347 583 q 296 571 296 583 q 300 560 296 566 l 429 399 l 567 583 l 483 583 q 465 623 465 583 q 474 668 465 658 q 490 679 484 679 l 750 679 q 766 640 766 679 q 756 594 766 605 q 739 583 746 583 q 665 554 688 583 l 485 330 l 641 134 q 722 96 669 100 q 744 96 732 96 l 755 96 z "},"y":{"ha":745,"x_min":4,"x_max":742,"o":"m 725 679 q 742 640 742 679 q 726 589 742 605 q 709 583 720 583 q 688 582 698 583 q 671 576 678 581 q 654 554 661 570 l 368 -176 q 298 -266 347 -233 q 178 -298 249 -298 q 45 -236 83 -298 q 31 -186 31 -213 q 31 -184 31 -185 q 38 -142 31 -159 q 57 -113 45 -125 q 116 -85 84 -85 l 117 -85 q 168 -95 150 -86 q 195 -119 184 -104 q 215 -194 214 -147 q 253 -170 237 -194 q 280 -117 269 -145 q 301 -65 292 -90 q 315 -21 309 -40 q 323 4 321 -2 l 98 583 l 22 583 q 4 624 4 583 q 14 668 4 657 q 31 679 23 679 l 325 679 q 342 640 342 679 q 331 594 342 606 q 314 583 321 583 q 254 554 254 583 l 392 151 l 553 583 l 464 583 q 446 623 446 583 q 455 668 446 658 q 471 679 465 679 l 725 679 z "},"z":{"ha":683,"x_min":51,"x_max":637,"o":"m 51 499 q 54 515 51 501 l 83 679 l 626 679 l 626 604 l 240 102 l 522 102 l 553 176 q 577 190 560 190 q 604 188 594 190 q 620 182 612 186 q 637 161 637 174 q 637 157 637 158 l 588 0 l 60 0 l 60 75 l 446 577 l 180 577 l 159 503 q 102 474 152 474 q 51 499 51 474 z "},"{":{"ha":452,"x_min":42,"x_max":451,"o":"m 432 -13 q 451 -60 451 -13 q 432 -109 451 -109 l 321 -109 q 184 -64 227 -109 q 140 102 140 -16 l 140 319 q 128 385 140 371 q 62 414 110 408 q 42 463 42 417 q 62 509 42 505 q 121 530 109 515 q 140 604 140 554 l 140 917 q 241 1122 140 1087 q 321 1133 275 1133 l 432 1133 q 451 1086 451 1133 q 432 1038 451 1038 l 378 1038 q 289 1005 311 1038 q 272 913 272 980 l 272 611 q 206 486 272 527 q 150 463 183 471 q 272 310 272 427 l 272 100 q 285 20 272 38 q 378 -13 309 -13 l 432 -13 z "},"|":{"ha":350,"x_min":123,"x_max":227,"o":"m 227 -309 q 175 -328 227 -328 q 123 -309 123 -328 l 123 1090 q 175 1109 123 1109 q 227 1090 227 1109 l 227 -309 z "},"}":{"ha":452,"x_min":1,"x_max":410,"o":"m 1 1086 q 20 1133 1 1133 l 134 1133 q 267 1085 224 1133 q 313 917 312 1035 l 313 599 q 324 539 313 553 q 391 509 343 515 q 410 463 410 505 q 403 425 410 435 q 381 413 396 415 q 351 406 366 411 q 327 389 335 400 q 313 324 313 372 l 313 102 q 211 -98 313 -68 q 132 -109 177 -109 l 20 -109 q 1 -60 1 -109 q 20 -13 1 -13 l 77 -13 q 164 16 143 -13 q 180 106 180 39 l 180 310 q 302 463 180 427 q 180 612 180 493 l 180 913 q 167 1001 180 981 q 74 1038 142 1038 l 20 1038 q 1 1086 1 1038 z "},"~":{"ha":826,"x_min":74,"x_max":755,"o":"m 138 315 q 98 330 113 316 q 74 378 74 353 q 195 496 118 458 q 258 513 228 513 q 313 505 288 513 q 367 487 338 498 q 425 463 395 476 q 481 439 454 450 q 570 414 547 414 q 611 424 594 414 q 642 449 628 435 q 668 478 656 464 q 689 501 680 493 q 730 487 715 501 q 755 439 755 463 q 642 317 719 357 q 576 300 609 300 q 515 307 543 300 q 458 323 488 313 q 399 345 429 332 l 342 366 q 254 390 278 389 l 252 390 q 212 380 229 390 q 180 359 194 371 q 155 334 165 347 q 138 315 145 321 z "},"ย":{"ha":298,"x_min":0,"x_max":0,"o":""},"ยก":{"ha":385,"x_min":98,"x_max":284,"o":"m 277 648 q 284 611 284 631 q 277 574 284 591 q 259 543 271 556 q 194 516 234 516 q 126 543 155 516 q 98 601 98 570 q 105 649 98 631 q 126 678 113 666 q 194 705 155 705 q 277 648 255 705 m 192 425 q 250 395 250 425 l 282 -277 q 187 -298 249 -298 q 102 -276 125 -298 l 136 397 q 172 422 136 415 q 192 425 182 425 z "},"ยข":{"ha":680,"x_min":44,"x_max":633,"o":"m 317 794 l 412 794 l 412 951 q 365 971 393 971 q 317 951 336 971 l 317 794 m 412 0 q 366 -18 395 -18 q 317 0 335 -18 l 317 200 l 412 200 l 412 0 m 433 729 l 370 729 q 248 675 299 729 q 183 478 183 607 q 288 239 183 289 q 355 222 321 222 q 356 223 355 222 q 418 231 391 223 q 473 250 446 238 q 524 277 499 262 l 572 306 q 582 308 575 308 q 597 300 588 308 q 614 281 606 292 q 633 239 632 255 l 633 237 q 625 216 633 222 q 343 119 496 119 q 122 217 202 119 q 44 478 45 312 q 142 736 44 642 q 378 825 235 825 q 590 758 531 825 q 612 703 612 732 q 605 656 612 673 q 586 627 598 640 q 519 601 559 601 q 453 627 480 601 q 426 678 426 653 q 427 679 426 679 q 433 729 427 705 z "},"ยฃ":{"ha":789,"x_min":41,"x_max":749,"o":"m 338 129 q 509 91 439 91 q 586 104 565 91 q 655 191 623 127 q 681 207 663 207 q 709 204 699 207 q 727 197 719 202 q 749 168 747 185 q 618 -4 705 25 q 561 -14 590 -14 q 497 -9 531 -14 q 425 0 463 -7 q 269 35 342 14 q 246 23 260 31 q 216 7 232 15 q 149 -14 174 -14 q 105 -6 124 -14 q 72 16 86 2 q 41 91 41 47 q 72 166 41 136 q 146 197 102 197 q 204 183 181 197 l 235 165 q 263 411 263 236 l 106 411 q 80 446 87 411 q 79 463 79 454 q 78 465 78 463 q 80 479 78 471 q 85 496 81 488 q 106 515 93 515 l 263 515 l 263 809 q 343 983 263 922 q 504 1034 410 1034 l 507 1034 q 669 1003 618 1034 q 683 963 683 994 q 655 888 682 916 q 639 879 647 879 q 610 888 631 879 q 500 912 560 912 l 498 912 q 433 882 454 912 q 406 753 406 844 l 406 515 l 585 515 q 609 481 602 515 q 611 465 610 472 q 601 422 611 433 q 585 411 591 411 l 406 411 q 401 354 404 385 q 393 288 399 323 q 338 129 379 205 z "},"ยค":{"ha":803,"x_min":66,"x_max":739,"o":"m 556 170 q 398 119 481 119 q 243 165 315 119 l 167 85 q 97 117 128 85 q 67 181 67 146 l 146 260 q 90 441 90 345 q 144 618 90 537 l 66 697 q 98 766 66 737 q 165 794 127 794 l 244 715 q 398 760 314 760 q 555 711 481 760 l 637 795 l 640 795 q 706 768 676 795 q 737 700 737 739 l 652 614 q 705 440 705 532 q 655 268 705 348 l 739 184 q 707 117 739 148 q 640 87 676 87 l 638 87 l 556 170 m 401 248 q 473 263 441 248 q 528 304 505 278 q 576 440 576 359 q 528 578 576 524 q 400 636 478 636 q 274 578 324 636 q 226 440 227 523 q 274 304 227 360 q 401 248 323 248 z "},"ยฅ":{"ha":865,"x_min":40,"x_max":825,"o":"m 243 0 q 226 39 226 0 l 226 41 q 244 91 226 73 q 254 96 249 96 l 296 96 q 368 113 358 96 q 370 125 370 118 l 370 279 l 146 279 q 121 315 127 279 q 119 332 119 323 q 119 334 119 332 q 121 349 119 340 q 125 365 122 357 q 146 384 134 384 l 368 384 l 304 532 l 144 532 q 118 568 125 532 q 116 584 117 576 q 126 626 116 615 q 144 637 136 637 l 258 637 l 134 925 l 58 925 q 40 966 40 925 q 50 1010 40 999 q 66 1021 59 1021 l 385 1021 q 402 982 402 1021 q 392 936 402 947 q 374 925 382 925 q 302 901 302 925 q 307 886 302 899 l 460 530 l 623 925 l 564 925 q 547 964 547 925 q 556 1010 547 1000 q 571 1021 565 1021 l 808 1021 q 825 982 825 1021 q 809 930 825 947 q 784 925 803 925 q 724 896 736 925 l 618 637 l 718 637 q 742 602 735 637 q 744 586 743 593 l 744 583 q 743 569 744 577 q 738 551 741 559 q 718 532 731 532 l 576 532 l 515 384 l 718 384 q 742 350 735 384 q 744 334 743 341 l 744 331 q 743 316 744 324 q 738 298 741 307 q 718 279 731 279 l 513 279 l 513 96 l 642 96 q 659 54 659 96 q 649 11 659 22 q 631 0 639 0 l 243 0 z "},"ยฆ":{"ha":354,"x_min":125,"x_max":229,"o":"m 125 1090 q 177 1109 125 1109 q 229 1090 229 1109 l 229 471 l 125 471 l 125 1090 m 229 -309 q 177 -328 229 -328 q 125 -309 125 -328 l 125 350 l 229 350 l 229 -309 z "},"ยง":{"ha":779,"x_min":45,"x_max":719,"o":"m 521 945 q 425 969 481 969 q 332 959 369 969 q 268 930 294 949 q 212 819 212 890 q 271 722 212 765 q 340 680 300 700 l 433 632 q 644 497 583 557 q 719 323 719 423 l 718 323 q 678 161 718 266 q 719 33 719 100 q 693 -87 719 -35 q 621 -176 667 -140 q 376 -254 524 -254 l 374 -254 q 160 -206 258 -254 q 45 -64 45 -150 q 76 11 45 -20 q 150 41 106 41 q 224 11 194 41 q 254 -64 254 -20 q 246 -101 254 -85 q 235 -127 238 -117 q 344 -151 279 -151 q 448 -137 409 -151 q 515 -101 487 -124 q 576 23 575 -52 l 576 24 q 437 176 576 104 l 254 269 q 69 524 69 366 q 95 646 69 585 l 109 679 q 68 812 68 741 q 96 930 68 882 q 171 1011 125 979 q 405 1074 262 1074 q 602 1025 510 1073 q 709 882 709 971 l 709 880 q 678 806 708 837 q 605 776 649 776 q 531 806 561 776 q 500 870 500 836 q 521 945 500 904 m 572 260 q 576 306 576 277 q 557 363 576 335 q 507 416 538 391 q 436 463 476 441 l 216 578 q 212 535 212 559 q 227 485 212 511 q 270 434 241 458 q 429 334 319 391 l 572 260 z "},"ยจ":{"ha":722,"x_min":121,"x_max":612,"o":"m 121 900 q 175 987 121 964 q 212 994 191 994 q 250 987 232 994 q 279 967 267 979 q 306 902 306 941 l 306 898 q 279 833 306 859 q 222 807 254 807 q 146 833 171 807 q 121 900 121 860 m 519 807 q 435 863 457 807 q 428 900 428 880 q 482 987 428 964 q 519 994 499 994 q 586 967 559 994 q 612 900 612 941 q 557 814 612 836 q 519 807 540 807 z "},"ยฉ":{"ha":1143,"x_min":45,"x_max":1098,"o":"m 45 513 q 117 775 45 654 q 306 963 186 894 q 572 1034 429 1034 q 838 963 715 1034 q 1027 775 958 894 q 1098 513 1098 654 l 1098 507 q 1027 245 1098 366 q 838 58 958 127 q 572 -14 715 -14 q 199 139 354 -14 q 64 370 102 235 q 45 505 45 435 l 45 513 m 260 824 q 231 794 260 824 q 168 683 201 764 q 134 510 134 602 q 168 336 134 417 q 260 196 201 256 q 399 101 319 136 q 572 66 479 66 q 882 195 755 66 q 1009 510 1009 324 q 882 824 1009 694 q 572 954 755 954 q 399 919 479 954 q 260 824 319 884 m 631 748 q 576 755 606 755 q 512 744 545 755 q 452 705 479 732 q 387 511 387 640 q 492 271 387 321 q 558 255 524 255 q 559 256 559 255 q 622 263 594 256 q 676 282 650 271 q 727 309 703 294 l 776 338 q 827 289 812 328 q 831 269 831 277 q 829 248 831 256 q 547 151 709 151 q 326 250 406 151 q 248 511 248 345 q 346 770 248 674 q 581 859 438 859 q 793 792 734 859 q 816 737 816 766 q 809 691 816 708 q 789 662 802 674 q 723 635 762 635 q 656 662 684 635 q 630 726 630 687 l 630 738 q 631 748 630 742 z "},"ยช":{"ha":621,"x_min":81,"x_max":535,"o":"m 515 493 q 534 465 528 493 q 535 452 535 458 q 527 416 535 425 q 515 407 519 407 l 102 407 q 82 435 87 407 q 81 449 81 442 q 82 463 81 456 q 85 477 83 471 q 102 493 91 493 l 515 493 m 221 970 q 226 941 226 960 q 210 905 226 922 q 168 888 193 888 q 126 905 142 888 q 109 944 109 922 q 119 980 109 966 q 144 1003 128 994 q 179 1019 159 1013 q 218 1028 198 1025 q 296 1034 256 1034 l 297 1034 q 366 1021 335 1034 q 415 983 396 1006 q 450 870 450 941 l 450 652 l 522 652 q 533 633 533 652 q 515 591 533 594 q 410 585 488 585 q 387 597 395 585 q 371 633 379 609 q 258 587 334 603 q 209 583 235 583 q 159 592 183 583 q 119 618 134 602 q 89 694 89 650 q 102 766 89 739 q 137 813 115 794 q 243 852 182 852 l 367 852 q 338 946 367 918 q 254 973 309 973 q 221 970 234 973 m 206 771 q 197 763 206 771 q 182 742 189 755 q 176 713 176 729 q 181 687 176 698 q 194 671 186 677 q 231 662 208 662 q 234 661 232 661 q 273 666 255 661 q 310 677 292 670 q 367 703 345 689 l 367 787 l 258 787 q 206 771 224 787 z "},"ยซ":{"ha":804,"x_min":29,"x_max":741,"o":"m 394 291 q 368 348 368 312 q 395 408 368 385 l 680 634 q 716 619 702 634 q 741 570 741 593 l 533 363 l 741 125 q 728 87 741 102 q 681 61 703 61 l 394 291 m 57 291 q 29 340 29 313 q 57 408 29 387 l 342 634 q 377 619 363 634 q 402 570 402 593 l 195 363 l 402 125 q 389 87 402 102 q 343 61 366 61 l 57 291 z "},"ยฌ":{"ha":759,"x_min":56,"x_max":682,"o":"m 633 494 q 682 437 682 494 l 682 193 q 648 168 682 175 q 631 167 639 167 q 588 177 600 167 q 577 193 577 186 l 577 390 l 84 390 q 58 425 65 390 q 57 442 57 434 q 56 444 56 443 q 58 459 56 451 q 63 476 60 468 q 83 494 71 494 l 633 494 z "},"ยญ":{"ha":509,"x_min":108,"x_max":465,"o":"m 439 467 q 463 427 456 467 q 465 410 464 418 q 455 361 465 374 q 438 348 445 348 l 135 348 q 110 389 117 348 q 109 407 109 399 q 108 410 108 408 q 110 425 108 417 q 115 445 111 435 q 136 467 123 467 l 439 467 z "},"ยฎ":{"ha":738,"x_min":46,"x_max":692,"o":"m 46 665 q 141 893 46 798 q 370 987 235 987 q 597 893 503 987 q 692 665 692 798 q 597 437 692 532 q 370 342 503 343 q 141 437 235 343 q 46 665 46 532 m 390 513 q 397 492 397 510 q 387 470 397 474 l 237 470 q 231 486 231 476 q 235 504 231 496 q 242 513 239 512 q 263 515 260 513 q 267 524 267 518 l 267 806 q 263 810 267 810 l 235 810 q 224 831 224 813 q 231 853 224 849 l 386 853 q 480 825 445 853 q 515 748 515 797 q 437 642 515 670 l 511 528 q 564 506 524 509 q 619 665 619 576 q 545 846 618 772 q 369 922 471 922 q 193 846 267 922 q 119 665 119 772 q 193 484 119 560 q 369 410 265 410 q 530 470 460 410 l 500 470 q 455 496 472 470 l 369 632 q 333 631 351 631 l 333 513 l 390 513 m 333 679 q 408 686 391 679 q 442 747 442 701 q 333 808 442 808 l 333 679 z "},"ยฏ":{"ha":722,"x_min":130,"x_max":583,"o":"m 141 839 q 130 884 130 839 q 141 930 130 930 l 573 930 q 582 918 581 930 q 583 873 583 906 q 573 839 583 839 l 141 839 z "},"ยฐ":{"ha":580,"x_min":45,"x_max":534,"o":"m 236 647 q 290 637 260 637 q 292 637 291 637 q 345 647 320 637 q 388 674 370 656 q 426 773 426 711 q 388 873 426 833 q 289 913 349 913 q 193 873 232 913 q 154 773 154 833 q 236 647 155 680 m 290 532 q 192 550 237 532 q 115 600 148 568 q 45 773 45 668 q 115 949 45 878 q 289 1020 185 1020 q 467 949 397 1020 q 534 773 534 878 q 467 600 534 667 q 290 532 399 532 z "},"ยฑ":{"ha":741,"x_min":55,"x_max":686,"o":"m 656 104 q 681 71 674 104 q 683 54 682 62 l 683 52 q 682 37 683 45 q 677 19 680 27 q 656 0 670 0 l 85 0 q 60 35 66 0 q 58 52 58 44 q 68 94 58 83 q 85 104 78 104 l 656 104 m 66 438 q 55 487 55 438 q 66 536 55 536 l 321 536 l 321 745 q 370 755 321 755 q 419 745 419 755 l 419 536 l 675 536 q 686 487 686 536 q 675 438 686 438 l 419 438 l 419 209 q 370 198 419 198 q 321 209 321 198 l 321 438 l 66 438 z "},"ยฒ":{"ha":548,"x_min":63,"x_max":484,"o":"m 202 887 q 182 836 202 855 q 134 816 163 816 q 83 836 104 816 q 63 888 63 856 q 78 948 63 921 q 120 994 93 975 q 269 1034 176 1034 l 271 1034 q 457 952 414 1034 q 472 884 472 926 l 472 883 q 454 807 471 840 q 410 750 437 774 q 350 704 383 725 q 283 661 316 684 q 181 538 206 606 l 404 538 l 422 591 q 454 600 434 600 q 484 580 473 600 l 463 439 l 77 439 l 77 468 q 212 708 77 600 q 321 811 297 777 q 346 875 346 845 q 338 922 346 905 q 316 952 330 941 q 255 974 290 974 q 203 968 220 974 q 170 946 185 962 q 199 905 191 937 q 202 887 202 895 z "},"ยณ":{"ha":543,"x_min":60,"x_max":488,"o":"m 171 518 q 259 490 199 490 l 260 490 q 326 524 300 490 q 351 608 351 556 l 351 612 q 336 678 351 658 q 251 724 309 718 l 251 760 q 312 801 296 783 q 342 886 342 836 q 314 948 342 922 q 256 973 287 973 l 255 973 q 168 946 195 973 q 198 907 189 936 q 201 892 201 899 q 181 836 201 856 q 131 815 161 815 q 80 836 100 815 q 60 892 60 857 q 80 953 60 926 q 130 997 99 979 q 275 1034 193 1034 q 456 948 414 1034 q 469 894 468 922 l 469 892 q 458 842 469 864 q 431 803 448 821 q 351 751 399 769 q 439 705 418 724 q 488 597 488 663 q 360 441 488 473 q 279 430 321 430 q 276 431 277 430 q 195 440 233 431 q 129 468 159 450 q 60 572 61 509 q 82 625 60 606 q 125 644 103 644 q 160 639 148 644 q 182 625 172 634 q 202 573 202 604 q 171 518 202 541 z "},"ยด":{"ha":722,"x_min":298,"x_max":585,"o":"m 366 806 q 323 822 337 806 q 298 879 298 850 l 484 1072 l 486 1072 q 555 1043 528 1072 q 585 965 585 1013 l 366 806 z "},"ยต":{"ha":840,"x_min":111,"x_max":800,"o":"m 356 -14 q 191 94 231 -14 q 250 -248 200 -29 q 222 -283 245 -269 q 170 -298 200 -298 q 111 -258 111 -298 l 111 679 l 243 679 l 243 431 q 308 132 243 183 q 367 113 331 113 q 434 136 403 113 q 488 209 466 160 q 535 511 535 311 l 535 679 l 633 679 q 667 652 667 679 l 667 214 q 678 123 667 142 q 700 100 690 104 q 724 96 711 96 l 781 96 q 800 64 800 90 q 771 0 800 8 q 753 -2 766 -1 l 723 -5 q 652 -9 678 -9 q 607 -1 626 -9 q 573 24 587 7 q 542 138 542 64 q 493 43 520 70 q 356 -14 439 -14 z "},"ยถ":{"ha":1071,"x_min":40,"x_max":1023,"o":"m 372 0 q 355 39 355 0 q 374 91 355 72 q 395 96 380 96 l 398 96 q 404 96 401 96 q 435 98 419 96 q 466 102 455 99 q 485 125 485 109 l 485 427 l 382 427 q 133 502 225 427 q 40 708 40 577 q 155 943 40 865 q 487 1021 270 1021 l 1006 1021 q 1023 973 1023 1021 q 1000 925 1023 925 l 878 925 l 878 96 l 991 96 q 1009 54 1009 96 q 999 11 1009 22 q 981 0 989 0 l 372 0 m 289 893 q 265 881 289 893 q 219 834 241 869 q 198 739 198 798 q 221 639 198 679 q 283 574 244 599 q 485 528 358 528 l 485 916 q 289 893 338 916 m 734 914 q 726 925 734 925 l 628 925 l 628 96 l 641 96 q 730 111 720 96 q 734 125 734 117 l 734 914 z "},"ยท":{"ha":354,"x_min":84,"x_max":270,"o":"m 177 290 q 91 345 114 290 q 84 382 84 362 q 91 420 84 403 q 111 449 99 437 q 177 475 138 475 q 263 420 240 475 q 270 382 270 403 q 263 345 270 362 q 243 316 255 328 q 177 290 216 290 z "},"ยธ":{"ha":806,"x_min":277,"x_max":554,"o":"m 440 -163 q 348 -121 440 -121 l 321 -89 l 357 10 l 465 10 l 440 -61 q 545 -123 518 -75 q 554 -157 554 -138 l 554 -160 q 304 -298 554 -298 q 284 -285 291 -298 q 277 -259 277 -273 q 297 -222 277 -222 q 429 -189 393 -222 q 440 -164 440 -178 l 440 -163 z "},"ยน":{"ha":488,"x_min":52,"x_max":429,"o":"m 418 509 q 429 474 429 509 q 414 439 429 439 l 88 439 q 80 463 80 439 q 96 509 80 509 l 155 509 q 197 526 197 509 l 197 870 q 191 894 197 894 q 170 888 184 894 l 107 861 q 87 855 92 855 q 75 862 81 855 q 64 877 69 868 q 52 907 52 897 q 52 908 52 908 q 58 923 52 919 l 288 1034 l 298 1034 q 323 1026 323 1034 l 323 509 l 418 509 z "},"ยบ":{"ha":619,"x_min":76,"x_max":539,"o":"m 519 493 q 538 465 532 493 q 539 452 539 458 q 531 416 539 425 q 519 407 524 407 l 106 407 q 86 435 92 407 q 85 449 85 442 q 86 463 85 456 q 90 477 87 471 q 106 493 95 493 l 519 493 m 292 568 q 199 586 239 568 q 132 635 159 604 q 76 805 76 701 q 152 978 76 915 q 323 1034 220 1034 l 326 1034 q 481 967 424 1034 q 537 802 537 903 q 468 627 537 689 q 294 568 403 568 l 292 568 m 177 804 q 213 679 177 720 q 308 637 249 637 q 404 686 370 637 q 435 788 435 730 q 426 876 435 845 q 398 926 416 906 q 307 965 364 965 l 304 965 q 189 884 221 965 q 177 804 177 853 z "},"ยป":{"ha":803,"x_min":63,"x_max":775,"o":"m 409 404 q 436 355 436 382 q 408 287 436 309 l 123 61 q 88 76 102 61 q 63 125 63 102 l 271 332 l 63 570 l 63 572 q 76 608 63 593 q 123 634 100 634 l 409 404 m 747 404 q 775 353 775 380 q 747 287 775 309 l 462 61 q 426 76 440 61 q 401 125 401 102 l 609 332 l 401 570 q 415 608 401 593 q 461 634 439 634 l 747 404 z "},"ยผ":{"ha":1200,"x_min":46,"x_max":1162,"o":"m 899 1021 q 964 1042 913 1042 q 1006 1021 1006 1042 l 339 0 q 269 -20 324 -20 q 227 0 227 -20 l 899 1021 m 690 155 q 669 190 673 163 l 884 597 q 965 571 931 597 q 995 526 995 548 l 771 231 l 937 231 l 937 359 q 1021 397 937 390 q 1063 399 1043 399 l 1063 231 l 1151 231 q 1162 199 1162 231 q 1154 165 1162 175 q 1141 155 1146 155 l 1063 155 l 1063 70 l 1134 70 q 1145 35 1145 70 q 1128 0 1145 0 l 820 0 q 809 28 809 0 q 817 59 809 49 q 829 70 825 70 l 886 70 q 937 87 937 70 l 937 155 l 690 155 m 413 509 q 423 474 423 509 q 409 439 423 439 l 83 439 q 75 463 75 439 q 91 509 75 509 l 149 509 q 192 526 192 509 l 192 870 q 186 894 192 894 q 165 888 179 894 l 102 861 q 81 855 87 855 q 70 862 75 855 q 58 877 64 868 q 46 907 46 897 q 47 908 46 908 q 53 923 47 919 l 282 1034 l 292 1034 q 317 1026 317 1034 l 317 509 l 413 509 z "},"ยฝ":{"ha":1198,"x_min":41,"x_max":1150,"o":"m 894 1021 q 959 1042 907 1042 q 1001 1021 1001 1042 l 334 0 q 264 -20 319 -20 q 221 0 221 -20 l 894 1021 m 408 509 q 418 474 418 509 q 404 439 418 439 l 77 439 q 69 463 69 439 q 85 509 69 509 l 144 509 q 186 526 186 509 l 186 870 q 180 894 186 894 q 159 888 174 894 l 96 861 q 76 855 81 855 q 64 862 70 855 q 53 877 58 868 q 41 907 41 897 q 41 908 41 908 q 47 923 41 919 l 277 1034 l 287 1034 q 312 1026 312 1034 l 312 509 l 408 509 m 869 448 q 849 397 869 416 q 800 377 829 377 q 750 397 770 377 q 730 450 730 417 q 745 509 730 482 q 787 556 760 537 q 935 595 842 595 q 1123 513 1080 595 q 1138 444 1138 486 q 1121 369 1138 401 q 1077 311 1103 336 q 1016 266 1050 286 q 951 222 983 245 q 848 99 873 168 l 1070 99 l 1089 152 q 1120 161 1101 161 q 1150 141 1139 161 l 1129 0 l 743 0 l 743 29 q 878 269 743 160 q 988 372 963 337 q 1013 436 1013 406 q 1005 484 1013 466 q 983 513 997 502 q 922 535 957 535 q 869 529 887 535 q 836 507 852 523 q 867 467 859 499 q 869 452 869 459 l 869 448 z "},"ยพ":{"ha":1242,"x_min":56,"x_max":1204,"o":"m 907 1021 q 972 1042 921 1042 q 1015 1021 1015 1042 l 347 0 q 277 -20 332 -20 q 235 0 235 -20 l 907 1021 m 732 155 q 711 190 715 163 l 926 597 q 1007 571 973 597 q 1037 526 1037 548 l 813 231 l 979 231 l 979 359 q 1063 397 979 390 q 1105 399 1085 399 l 1105 231 l 1193 231 q 1204 199 1204 231 q 1196 165 1204 175 q 1183 155 1188 155 l 1105 155 l 1105 70 l 1176 70 q 1187 35 1187 70 q 1171 0 1187 0 l 862 0 q 851 28 851 0 q 859 59 851 49 q 871 70 867 70 l 928 70 q 979 87 979 70 l 979 155 l 732 155 m 167 518 q 255 490 195 490 l 256 490 q 321 524 296 490 q 347 608 347 556 l 347 612 q 332 678 347 658 q 247 724 305 718 l 247 760 q 308 801 292 783 q 338 886 338 836 q 310 948 338 922 q 252 973 283 973 l 251 973 q 163 946 191 973 q 194 907 184 936 q 197 892 197 899 q 177 836 197 856 q 127 815 157 815 q 76 836 96 815 q 56 892 56 857 q 76 953 56 926 q 125 997 95 979 q 271 1034 189 1034 q 452 948 410 1034 q 465 894 464 922 l 465 892 q 454 842 465 864 q 427 803 444 821 q 347 751 395 769 q 435 705 414 724 q 484 597 484 663 q 356 441 484 473 q 275 430 317 430 q 272 431 273 430 q 191 440 229 431 q 125 468 155 450 q 56 572 57 509 q 78 625 56 606 q 121 644 99 644 q 156 639 144 644 q 178 625 168 634 q 198 573 198 604 q 167 518 198 541 z "},"ยฟ":{"ha":644,"x_min":56,"x_max":617,"o":"m 443 -185 q 427 -132 427 -157 q 435 -88 427 -106 q 455 -58 442 -71 q 513 -32 483 -32 q 560 -39 543 -32 q 590 -58 578 -46 q 617 -121 617 -85 q 602 -183 617 -158 q 563 -226 587 -208 q 509 -258 538 -245 q 447 -281 478 -273 q 328 -297 386 -297 q 217 -277 270 -297 q 129 -224 164 -258 q 56 -54 57 -157 q 136 129 56 46 q 214 199 171 165 l 302 268 l 302 373 q 345 413 302 404 q 370 416 357 416 q 434 373 434 416 l 434 252 q 356 191 397 219 q 281 130 315 163 q 203 -41 203 56 q 246 -152 203 -110 q 359 -193 288 -193 l 382 -193 q 443 -185 413 -193 m 437 664 q 443 657 437 664 q 457 634 450 651 q 465 596 465 616 q 457 559 465 576 q 437 528 449 541 q 380 501 410 501 q 333 508 350 501 q 302 528 315 515 q 275 587 275 556 q 282 634 275 616 q 302 663 290 651 q 360 690 330 690 q 407 683 390 690 q 437 664 425 676 z "},"ร":{"ha":966,"x_min":-8,"x_max":979,"o":"m 9 0 q -8 39 -8 0 q 8 90 -8 74 q 33 96 14 96 q 98 134 83 96 l 444 1021 q 470 1034 449 1034 q 521 1021 515 1034 l 882 96 l 962 96 q 979 55 979 96 q 969 11 979 21 q 953 0 960 0 l 624 0 q 607 37 607 0 q 617 84 607 73 q 635 96 627 96 q 719 112 719 96 q 713 129 719 118 l 633 338 l 289 338 l 195 96 l 311 96 q 329 56 329 96 q 320 11 329 21 q 304 0 311 0 l 9 0 m 329 443 l 593 443 l 462 785 l 329 443 m 218 1243 q 279 1343 218 1317 q 315 1350 296 1350 l 319 1350 l 504 1157 q 490 1112 503 1128 q 437 1084 465 1084 l 218 1243 z "},"ร":{"ha":966,"x_min":-8,"x_max":979,"o":"m 9 0 q -8 39 -8 0 q 8 90 -8 74 q 33 96 14 96 q 98 134 83 96 l 444 1021 q 470 1034 449 1034 q 521 1021 515 1034 l 882 96 l 962 96 q 979 55 979 96 q 969 11 979 21 q 953 0 960 0 l 624 0 q 607 37 607 0 q 617 84 607 73 q 635 96 627 96 q 719 112 719 96 q 713 129 719 118 l 633 338 l 289 338 l 195 96 l 311 96 q 329 56 329 96 q 320 11 329 21 q 304 0 311 0 l 9 0 m 329 443 l 593 443 l 462 785 l 329 443 m 530 1084 q 488 1100 502 1084 q 463 1157 463 1128 l 648 1350 l 650 1350 q 720 1321 692 1350 q 749 1243 749 1291 l 530 1084 z "},"ร":{"ha":966,"x_min":-8,"x_max":979,"o":"m 9 0 q -8 39 -8 0 q 8 90 -8 74 q 33 96 14 96 q 98 134 83 96 l 444 1021 q 470 1034 449 1034 q 521 1021 515 1034 l 882 96 l 962 96 q 979 55 979 96 q 969 11 979 21 q 953 0 960 0 l 624 0 q 607 37 607 0 q 617 84 607 73 q 635 96 627 96 q 719 112 719 96 q 713 129 719 118 l 633 338 l 289 338 l 195 96 l 311 96 q 329 56 329 96 q 320 11 329 21 q 304 0 311 0 l 9 0 m 329 443 l 593 443 l 462 785 l 329 443 m 315 1091 q 279 1107 292 1092 q 258 1159 258 1133 l 432 1279 q 480 1298 461 1298 q 533 1279 505 1298 l 707 1159 q 672 1097 707 1116 q 650 1091 662 1092 l 484 1171 l 315 1091 z "},"ร":{"ha":966,"x_min":-8,"x_max":979,"o":"m 9 0 q -8 39 -8 0 q 8 90 -8 74 q 33 96 14 96 q 98 134 83 96 l 444 1021 q 470 1034 449 1034 q 521 1021 515 1034 l 882 96 l 962 96 q 979 55 979 96 q 969 11 979 21 q 953 0 960 0 l 624 0 q 607 37 607 0 q 617 84 607 73 q 635 96 627 96 q 719 112 719 96 q 713 129 719 118 l 633 338 l 289 338 l 195 96 l 311 96 q 329 56 329 96 q 320 11 329 21 q 304 0 311 0 l 9 0 m 329 443 l 593 443 l 462 785 l 329 443 m 259 1103 q 218 1118 232 1104 q 195 1166 195 1141 q 317 1284 240 1245 q 385 1300 350 1300 q 444 1285 419 1300 q 492 1251 469 1270 q 540 1217 516 1232 q 587 1202 564 1202 q 627 1212 610 1202 q 658 1237 644 1223 q 684 1266 672 1251 q 705 1289 695 1281 q 745 1275 730 1289 q 771 1227 771 1251 q 658 1105 735 1145 q 592 1088 625 1088 q 539 1095 559 1088 q 501 1111 519 1101 q 468 1133 484 1121 q 437 1154 452 1145 q 376 1178 400 1177 l 374 1178 q 334 1168 351 1178 q 301 1147 315 1159 q 276 1122 287 1135 q 259 1103 266 1109 z "},"ร":{"ha":966,"x_min":-8,"x_max":979,"o":"m 9 0 q -8 39 -8 0 q 8 90 -8 74 q 33 96 14 96 q 98 134 83 96 l 444 1021 q 470 1034 449 1034 q 521 1021 515 1034 l 882 96 l 962 96 q 979 55 979 96 q 969 11 979 21 q 953 0 960 0 l 624 0 q 607 37 607 0 q 617 84 607 73 q 635 96 627 96 q 719 112 719 96 q 713 129 719 118 l 633 338 l 289 338 l 195 96 l 311 96 q 329 56 329 96 q 320 11 329 21 q 304 0 311 0 l 9 0 m 329 443 l 593 443 l 462 785 l 329 443 m 241 1192 l 241 1193 q 294 1279 241 1256 q 332 1286 311 1286 q 369 1279 352 1286 q 399 1259 387 1271 q 426 1192 426 1232 q 399 1124 426 1152 q 342 1099 373 1099 q 266 1125 290 1099 q 241 1192 241 1152 m 640 1099 q 555 1154 577 1099 q 548 1192 548 1171 q 602 1279 548 1256 q 640 1286 619 1286 q 707 1259 680 1286 q 732 1192 732 1233 q 677 1105 732 1128 q 640 1099 660 1099 z "},"ร":{"ha":963,"x_min":-9,"x_max":978,"o":"m 7 0 q -9 39 -9 0 q 7 90 -9 74 q 31 96 12 96 q 97 134 81 96 l 442 1021 q 469 1034 448 1034 q 519 1021 514 1034 l 881 96 l 960 96 q 978 55 978 96 q 968 11 978 21 q 951 0 958 0 l 623 0 q 606 37 606 0 q 616 84 606 73 q 633 96 626 96 q 718 112 718 96 q 712 129 718 118 l 631 338 l 288 338 l 193 96 l 310 96 q 328 56 328 96 q 318 11 328 21 q 303 0 309 0 l 7 0 m 328 443 l 591 443 l 460 785 l 328 443 m 331 1090 q 342 1146 331 1120 q 372 1192 353 1173 q 478 1235 414 1235 q 585 1192 543 1235 q 625 1090 625 1151 q 585 990 625 1031 q 478 947 543 948 q 372 990 414 948 q 331 1090 331 1029 m 425 1093 q 441 1053 425 1069 q 481 1036 457 1036 q 520 1053 505 1036 q 536 1093 536 1069 q 520 1134 536 1117 q 481 1150 505 1150 q 441 1134 457 1150 q 425 1093 425 1117 z "},"ร":{"ha":1272,"x_min":-25,"x_max":1238,"o":"m 1050 335 q 1002 307 1050 307 q 953 326 953 307 l 953 428 l 724 428 l 736 104 l 929 104 q 1059 116 1026 104 q 1111 148 1091 127 q 1141 205 1131 168 q 1170 219 1143 219 l 1174 219 q 1195 217 1183 219 q 1238 191 1237 211 l 1238 186 q 1207 65 1228 117 q 1175 0 1185 14 l 484 0 q 465 40 465 0 q 481 91 465 75 q 503 96 487 96 l 505 96 q 513 96 509 96 q 543 97 528 96 q 574 102 563 98 q 593 125 593 108 l 582 428 l 317 428 l 185 96 l 261 96 q 279 56 279 96 q 270 11 279 21 q 254 0 260 0 l -8 0 q -25 39 -25 0 q -14 85 -25 73 q 3 97 -3 96 q 54 107 35 100 q 81 134 73 114 l 417 996 q 455 1021 427 1021 l 1210 1021 l 1210 823 q 1162 800 1210 800 q 1114 815 1114 800 q 1099 888 1114 872 q 1003 916 1073 916 l 705 916 l 720 532 l 909 532 q 945 547 940 532 q 954 635 954 569 q 995 650 954 650 q 1040 641 1030 650 q 1050 625 1050 631 l 1050 335 m 562 916 l 562 916 q 551 925 562 925 q 498 890 512 925 l 357 532 l 578 532 l 562 916 z "},"ร":{"ha":866,"x_min":70,"x_max":821,"o":"m 628 905 q 523 930 588 930 q 404 903 458 930 q 311 828 350 877 q 228 558 228 724 q 397 126 228 214 q 506 98 450 98 q 507 98 507 98 q 596 107 563 98 q 655 129 629 116 q 702 155 682 141 q 751 182 741 182 q 770 174 761 182 q 788 156 780 167 q 806 115 806 132 q 794 85 806 96 q 755 57 781 74 q 690 24 728 39 q 503 -14 599 -14 q 330 17 407 -14 q 195 110 254 47 q 70 495 70 246 l 70 498 q 201 902 70 760 q 526 1034 323 1034 l 528 1034 q 723 983 634 1034 q 821 842 821 926 q 791 767 821 798 q 718 737 762 737 q 644 767 673 737 q 613 839 613 798 q 628 905 613 880 m 532 -163 q 440 -121 532 -121 l 414 -89 l 449 10 l 557 10 l 532 -61 q 637 -123 610 -75 q 646 -157 646 -138 l 646 -160 q 397 -298 646 -298 q 376 -285 383 -298 q 370 -259 370 -273 q 389 -222 370 -222 q 521 -189 486 -222 q 532 -164 532 -178 l 532 -163 z "},"ร":{"ha":873,"x_min":50,"x_max":842,"o":"m 654 378 q 605 350 654 350 q 556 368 556 350 l 556 471 l 340 471 l 340 104 l 699 104 l 751 205 q 777 218 758 218 q 805 216 795 218 q 823 211 815 214 q 842 191 842 203 q 841 186 842 187 l 779 0 l 87 0 q 68 40 68 0 q 85 91 69 75 q 107 96 91 96 l 109 96 q 115 96 112 96 q 147 98 131 96 q 178 102 167 99 q 197 125 197 109 l 197 916 q 189 925 197 925 l 77 925 q 52 960 58 925 q 50 978 50 970 q 67 1021 50 1021 l 813 1021 l 813 823 q 766 800 813 800 q 718 815 718 800 q 703 888 718 872 q 606 916 676 916 l 340 916 l 340 575 l 512 575 q 549 590 543 575 q 557 677 557 612 q 598 693 557 693 q 644 684 633 693 q 654 668 654 674 l 654 378 m 279 1243 q 340 1343 279 1317 q 376 1350 357 1350 l 380 1350 l 565 1157 q 551 1112 564 1128 q 498 1084 526 1084 l 279 1243 z "},"ร":{"ha":873,"x_min":50,"x_max":842,"o":"m 654 378 q 605 350 654 350 q 556 368 556 350 l 556 471 l 340 471 l 340 104 l 699 104 l 751 205 q 777 218 758 218 q 805 216 795 218 q 823 211 815 214 q 842 191 842 203 q 841 186 842 187 l 779 0 l 87 0 q 68 40 68 0 q 85 91 69 75 q 107 96 91 96 l 109 96 q 115 96 112 96 q 147 98 131 96 q 178 102 167 99 q 197 125 197 109 l 197 916 q 189 925 197 925 l 77 925 q 52 960 58 925 q 50 978 50 970 q 67 1021 50 1021 l 813 1021 l 813 823 q 766 800 813 800 q 718 815 718 800 q 703 888 718 872 q 606 916 676 916 l 340 916 l 340 575 l 512 575 q 549 590 543 575 q 557 677 557 612 q 598 693 557 693 q 644 684 633 693 q 654 668 654 674 l 654 378 m 463 1084 q 420 1100 435 1084 q 396 1157 396 1128 l 581 1350 l 583 1350 q 653 1321 625 1350 q 682 1243 682 1291 l 463 1084 z "},"ร":{"ha":873,"x_min":50,"x_max":842,"o":"m 654 378 q 605 350 654 350 q 556 368 556 350 l 556 471 l 340 471 l 340 104 l 699 104 l 751 205 q 777 218 758 218 q 805 216 795 218 q 823 211 815 214 q 842 191 842 203 q 841 186 842 187 l 779 0 l 87 0 q 68 40 68 0 q 85 91 69 75 q 107 96 91 96 l 109 96 q 115 96 112 96 q 147 98 131 96 q 178 102 167 99 q 197 125 197 109 l 197 916 q 189 925 197 925 l 77 925 q 52 960 58 925 q 50 978 50 970 q 67 1021 50 1021 l 813 1021 l 813 823 q 766 800 813 800 q 718 815 718 800 q 703 888 718 872 q 606 916 676 916 l 340 916 l 340 575 l 512 575 q 549 590 543 575 q 557 677 557 612 q 598 693 557 693 q 644 684 633 693 q 654 668 654 674 l 654 378 m 305 1091 q 269 1107 282 1092 q 248 1159 248 1133 l 422 1279 q 469 1298 450 1298 q 523 1279 494 1298 l 696 1159 q 662 1097 696 1116 q 640 1091 652 1092 l 473 1171 l 305 1091 z "},"ร":{"ha":873,"x_min":50,"x_max":842,"o":"m 654 378 q 605 350 654 350 q 556 368 556 350 l 556 471 l 340 471 l 340 104 l 699 104 l 751 205 q 777 218 758 218 q 805 216 795 218 q 823 211 815 214 q 842 191 842 203 q 841 186 842 187 l 779 0 l 87 0 q 68 40 68 0 q 85 91 69 75 q 107 96 91 96 l 109 96 q 115 96 112 96 q 147 98 131 96 q 178 102 167 99 q 197 125 197 109 l 197 916 q 189 925 197 925 l 77 925 q 52 960 58 925 q 50 978 50 970 q 67 1021 50 1021 l 813 1021 l 813 823 q 766 800 813 800 q 718 815 718 800 q 703 888 718 872 q 606 916 676 916 l 340 916 l 340 575 l 512 575 q 549 590 543 575 q 557 677 557 612 q 598 693 557 693 q 644 684 633 693 q 654 668 654 674 l 654 378 m 220 1192 q 274 1279 220 1256 q 311 1286 290 1286 q 349 1279 331 1286 q 378 1259 366 1271 q 405 1194 405 1232 l 405 1190 q 378 1124 405 1151 q 321 1099 353 1099 q 245 1125 270 1099 q 220 1192 220 1152 m 618 1099 q 534 1154 556 1099 q 527 1192 527 1171 q 581 1279 527 1256 q 618 1286 598 1286 q 685 1259 658 1286 q 711 1192 711 1233 q 656 1105 711 1128 q 618 1099 639 1099 z "},"ร":{"ha":536,"x_min":39,"x_max":486,"o":"m 454 96 q 472 54 472 96 q 462 11 472 22 q 444 0 452 0 l 83 0 q 68 39 68 0 q 87 91 68 72 q 108 96 92 96 l 111 96 q 116 96 113 96 q 148 98 132 96 q 178 102 168 99 q 197 125 197 109 l 197 914 q 189 925 197 925 l 78 925 q 52 962 58 925 q 50 981 50 971 q 68 1021 50 1021 l 469 1021 q 486 973 486 1021 q 463 925 486 925 l 340 925 l 340 96 l 454 96 m 39 1243 q 100 1343 39 1317 q 136 1350 117 1350 l 140 1350 l 325 1157 q 311 1112 324 1128 q 258 1084 286 1084 l 39 1243 z "},"ร":{"ha":536,"x_min":50,"x_max":498,"o":"m 454 96 q 472 54 472 96 q 462 11 472 22 q 444 0 452 0 l 83 0 q 68 39 68 0 q 87 91 68 72 q 108 96 92 96 l 111 96 q 116 96 113 96 q 148 98 132 96 q 178 102 168 99 q 197 125 197 109 l 197 914 q 189 925 197 925 l 78 925 q 52 962 58 925 q 50 981 50 971 q 68 1021 50 1021 l 469 1021 q 486 973 486 1021 q 463 925 486 925 l 340 925 l 340 96 l 454 96 m 279 1084 q 237 1100 251 1084 q 212 1157 212 1128 l 397 1350 l 399 1350 q 469 1321 441 1350 q 498 1243 498 1291 l 279 1084 z "},"ร":{"ha":536,"x_min":41,"x_max":490,"o":"m 454 96 q 472 54 472 96 q 462 11 472 22 q 444 0 452 0 l 83 0 q 68 39 68 0 q 87 91 68 72 q 108 96 92 96 l 111 96 q 116 96 113 96 q 148 98 132 96 q 178 102 168 99 q 197 125 197 109 l 197 914 q 189 925 197 925 l 78 925 q 52 962 58 925 q 50 981 50 971 q 68 1021 50 1021 l 469 1021 q 486 973 486 1021 q 463 925 486 925 l 340 925 l 340 96 l 454 96 m 98 1091 q 62 1107 75 1092 q 41 1159 41 1133 l 215 1279 q 263 1298 244 1298 q 316 1279 288 1298 l 490 1159 q 455 1097 490 1116 q 433 1091 445 1092 l 267 1171 l 98 1091 z "},"ร":{"ha":536,"x_min":24,"x_max":515,"o":"m 454 96 q 472 54 472 96 q 462 11 472 22 q 444 0 452 0 l 83 0 q 68 39 68 0 q 87 91 68 72 q 108 96 92 96 l 111 96 q 116 96 113 96 q 148 98 132 96 q 178 102 168 99 q 197 125 197 109 l 197 914 q 189 925 197 925 l 78 925 q 52 962 58 925 q 50 981 50 971 q 68 1021 50 1021 l 469 1021 q 486 973 486 1021 q 463 925 486 925 l 340 925 l 340 96 l 454 96 m 24 1192 l 24 1193 q 77 1279 24 1256 q 115 1286 94 1286 q 152 1279 135 1286 q 182 1259 170 1271 q 209 1192 209 1232 q 182 1124 209 1152 q 125 1099 156 1099 q 48 1125 73 1099 q 24 1192 24 1152 m 422 1099 q 338 1154 360 1099 q 331 1192 331 1171 q 385 1279 331 1256 q 422 1286 402 1286 q 490 1259 463 1286 q 515 1192 515 1233 q 460 1105 515 1128 q 422 1099 443 1099 z "},"ร":{"ha":1036,"x_min":56,"x_max":965,"o":"m 88 575 l 519 575 l 519 471 l 88 471 l 88 575 m 56 978 q 74 1021 56 1021 l 469 1021 q 854 892 736 1021 q 965 514 964 772 l 965 512 q 810 119 965 254 q 469 0 673 1 l 94 0 q 75 39 75 0 q 93 90 75 70 q 116 96 98 96 q 153 98 134 96 q 184 102 174 99 q 203 125 203 109 l 203 916 q 195 925 203 925 l 84 925 q 58 960 65 925 q 56 978 57 970 m 347 104 l 446 104 q 693 199 591 104 q 807 490 807 305 q 609 890 807 808 q 463 916 545 916 l 347 916 l 347 104 z "},"ร":{"ha":1131,"x_min":50,"x_max":1091,"o":"m 50 981 q 68 1021 50 1021 l 304 1021 l 842 234 l 842 914 q 833 925 842 925 l 722 925 q 696 962 703 925 q 694 981 694 971 q 712 1021 694 1021 l 1074 1021 q 1091 973 1091 1021 q 1067 925 1091 925 l 946 925 l 946 -1 q 896 -14 946 -14 q 840 -1 848 -14 l 302 764 l 302 96 l 416 96 q 434 54 434 96 q 424 10 434 20 q 406 0 414 0 l 85 0 q 68 39 68 0 q 87 91 68 72 q 108 96 92 96 l 111 96 q 116 96 113 96 q 148 98 132 96 q 178 102 168 99 q 197 125 197 109 l 197 914 q 189 925 197 925 l 78 925 q 52 962 58 925 q 50 981 50 971 m 349 1103 q 309 1118 323 1104 q 286 1166 286 1141 q 407 1284 330 1245 q 475 1300 439 1300 q 534 1285 509 1300 q 583 1251 559 1270 q 630 1217 606 1232 q 677 1202 654 1202 q 717 1212 700 1202 q 748 1237 734 1223 q 774 1266 762 1251 q 795 1289 785 1281 q 836 1275 821 1289 q 861 1227 861 1251 q 747 1105 825 1145 q 682 1088 715 1088 q 629 1095 649 1088 q 591 1111 609 1101 q 557 1133 574 1121 q 526 1154 541 1145 q 466 1178 490 1177 l 464 1178 q 424 1168 441 1178 q 391 1147 406 1159 q 367 1122 377 1135 q 349 1103 356 1109 z "},"ร":{"ha":1018,"x_min":69,"x_max":948,"o":"m 498 -14 q 331 16 408 -14 q 195 109 254 47 q 69 496 69 245 q 199 901 69 758 q 525 1034 321 1034 q 840 888 730 1034 q 948 486 948 746 q 812 104 948 237 q 498 -14 693 -14 m 394 127 q 511 98 448 98 q 622 119 572 98 q 709 186 671 140 q 792 494 792 287 q 709 798 792 674 q 503 922 625 922 q 307 824 384 922 q 225 558 225 722 q 394 127 225 216 m 257 1243 q 318 1343 257 1317 q 355 1350 335 1350 l 358 1350 l 543 1157 q 529 1112 543 1128 q 477 1084 505 1084 l 257 1243 z "},"ร":{"ha":1018,"x_min":69,"x_max":948,"o":"m 498 -14 q 331 16 408 -14 q 195 109 254 47 q 69 496 69 245 q 199 901 69 758 q 525 1034 321 1034 q 840 888 730 1034 q 948 486 948 746 q 812 104 948 237 q 498 -14 693 -14 m 394 127 q 511 98 448 98 q 622 119 572 98 q 709 186 671 140 q 792 494 792 287 q 709 798 792 674 q 503 922 625 922 q 307 824 384 922 q 225 558 225 722 q 394 127 225 216 m 526 1084 q 483 1100 497 1084 q 458 1157 458 1128 l 644 1350 l 646 1350 q 715 1321 688 1350 q 745 1243 745 1291 l 526 1084 z "},"ร":{"ha":1018,"x_min":69,"x_max":948,"o":"m 498 -14 q 331 16 408 -14 q 195 109 254 47 q 69 496 69 245 q 199 901 69 758 q 525 1034 321 1034 q 840 888 730 1034 q 948 486 948 746 q 812 104 948 237 q 498 -14 693 -14 m 394 127 q 511 98 448 98 q 622 119 572 98 q 709 186 671 140 q 792 494 792 287 q 709 798 792 674 q 503 922 625 922 q 307 824 384 922 q 225 558 225 722 q 394 127 225 216 m 345 1091 q 309 1107 322 1092 q 288 1159 288 1133 l 462 1279 q 510 1298 491 1298 q 563 1279 534 1298 l 736 1159 q 702 1097 736 1116 q 680 1091 692 1092 l 513 1171 l 345 1091 z "},"ร":{"ha":1018,"x_min":69,"x_max":948,"o":"m 286 1103 q 245 1118 259 1104 q 222 1166 222 1141 q 343 1284 266 1245 q 411 1300 376 1300 q 470 1285 446 1300 q 519 1251 495 1270 q 567 1217 543 1232 q 614 1202 591 1202 q 653 1212 636 1202 q 684 1237 670 1223 q 710 1266 699 1251 q 731 1289 722 1281 q 772 1275 757 1289 q 798 1227 798 1251 q 684 1105 761 1145 q 618 1088 651 1088 q 565 1095 585 1088 q 528 1111 545 1101 q 494 1133 510 1121 q 463 1154 477 1145 q 402 1178 426 1177 l 400 1178 q 360 1168 377 1178 q 328 1147 342 1159 q 303 1122 313 1135 q 286 1103 292 1109 m 498 -14 q 331 16 408 -14 q 195 109 254 47 q 69 496 69 245 q 199 901 69 758 q 525 1034 321 1034 q 840 888 730 1034 q 948 486 948 746 q 812 104 948 237 q 498 -14 693 -14 m 394 127 q 511 98 448 98 q 622 119 572 98 q 709 186 671 140 q 792 494 792 287 q 709 798 792 674 q 503 922 625 922 q 307 824 384 922 q 225 558 225 722 q 394 127 225 216 z "},"ร":{"ha":1018,"x_min":69,"x_max":948,"o":"m 498 -14 q 331 16 408 -14 q 195 109 254 47 q 69 496 69 245 q 199 901 69 758 q 525 1034 321 1034 q 840 888 730 1034 q 948 486 948 746 q 812 104 948 237 q 498 -14 693 -14 m 394 127 q 511 98 448 98 q 622 119 572 98 q 709 186 671 140 q 792 494 792 287 q 709 798 792 674 q 503 922 625 922 q 307 824 384 922 q 225 558 225 722 q 394 127 225 216 m 262 1192 q 316 1279 262 1256 q 353 1286 332 1286 q 391 1279 373 1286 q 420 1259 408 1271 q 447 1194 447 1232 l 447 1190 q 420 1124 447 1151 q 363 1099 395 1099 q 287 1125 312 1099 q 262 1192 262 1152 m 661 1099 q 576 1154 598 1099 q 569 1192 569 1171 q 623 1279 569 1256 q 661 1286 640 1286 q 727 1259 700 1286 q 753 1192 753 1233 q 698 1105 753 1128 q 661 1099 681 1099 z "},"ร":{"ha":775,"x_min":58,"x_max":718,"o":"m 63 681 q 109 751 63 737 q 135 755 122 755 l 385 517 l 640 765 q 711 693 711 761 l 460 446 l 718 200 q 699 145 718 165 q 645 125 681 125 l 385 372 l 130 121 q 87 136 104 121 q 58 193 58 164 l 312 443 l 63 681 z "},"ร":{"ha":1032,"x_min":43,"x_max":986,"o":"m 873 1021 q 927 1039 910 1039 q 952 1038 944 1039 q 968 1036 961 1038 q 986 1021 986 1032 l 168 -26 q 102 -45 119 -45 l 76 -45 q 60 -42 67 -43 q 43 -26 43 -38 l 873 1021 m 505 -14 q 338 17 415 -14 q 202 109 260 47 q 77 493 77 244 l 77 496 q 207 901 77 758 q 532 1034 328 1034 q 848 888 738 1034 q 956 486 956 746 l 956 483 q 821 104 956 237 q 505 -14 700 -14 m 401 127 q 518 98 456 98 q 629 119 580 98 q 717 186 679 140 q 800 494 800 287 q 716 798 799 674 q 510 922 632 922 q 313 824 391 922 q 233 561 233 722 l 233 558 q 401 127 233 216 z "},"ร":{"ha":1048,"x_min":28,"x_max":1015,"o":"m 876 376 q 524 -14 876 -14 q 251 90 334 -14 q 175 386 175 184 l 175 914 q 166 925 175 925 l 56 925 q 30 962 37 925 q 28 979 28 971 q 45 1021 28 1021 l 433 1021 q 450 973 450 1021 q 427 925 450 925 l 318 925 l 318 392 q 450 113 318 161 q 545 98 491 98 q 642 116 600 98 q 711 169 684 133 q 764 390 764 239 l 764 914 q 755 925 764 925 l 657 925 q 631 962 637 925 q 629 981 629 971 q 647 1021 629 1021 l 997 1021 q 1015 977 1015 1021 q 1005 935 1015 945 q 990 925 996 925 l 876 925 l 876 376 m 303 1243 q 364 1343 303 1317 q 401 1350 381 1350 l 404 1350 l 589 1157 q 575 1112 589 1128 q 523 1084 551 1084 l 303 1243 z "},"ร":{"ha":1048,"x_min":28,"x_max":1015,"o":"m 876 376 q 524 -14 876 -14 q 251 90 334 -14 q 175 386 175 184 l 175 914 q 166 925 175 925 l 56 925 q 30 962 37 925 q 28 979 28 971 q 45 1021 28 1021 l 433 1021 q 450 973 450 1021 q 427 925 450 925 l 318 925 l 318 392 q 450 113 318 161 q 545 98 491 98 q 642 116 600 98 q 711 169 684 133 q 764 390 764 239 l 764 914 q 755 925 764 925 l 657 925 q 631 962 637 925 q 629 981 629 971 q 647 1021 629 1021 l 997 1021 q 1015 977 1015 1021 q 1005 935 1015 945 q 990 925 996 925 l 876 925 l 876 376 m 581 1084 q 538 1100 553 1084 q 514 1157 514 1128 l 699 1350 l 701 1350 q 771 1321 743 1350 q 800 1243 800 1291 l 581 1084 z "},"ร":{"ha":1048,"x_min":28,"x_max":1015,"o":"m 876 376 q 524 -14 876 -14 q 251 90 334 -14 q 175 386 175 184 l 175 914 q 166 925 175 925 l 56 925 q 30 962 37 925 q 28 979 28 971 q 45 1021 28 1021 l 433 1021 q 450 973 450 1021 q 427 925 450 925 l 318 925 l 318 392 q 450 113 318 161 q 545 98 491 98 q 642 116 600 98 q 711 169 684 133 q 764 390 764 239 l 764 914 q 755 925 764 925 l 657 925 q 631 962 637 925 q 629 981 629 971 q 647 1021 629 1021 l 997 1021 q 1015 977 1015 1021 q 1005 935 1015 945 q 990 925 996 925 l 876 925 l 876 376 m 377 1091 q 341 1107 354 1092 q 320 1159 320 1133 l 494 1279 q 541 1298 522 1298 q 595 1279 566 1298 l 768 1159 q 734 1097 768 1116 q 711 1091 724 1092 l 545 1171 l 377 1091 z "},"ร":{"ha":1048,"x_min":28,"x_max":1015,"o":"m 876 376 q 524 -14 876 -14 q 251 90 334 -14 q 175 386 175 184 l 175 914 q 166 925 175 925 l 56 925 q 30 962 37 925 q 28 979 28 971 q 45 1021 28 1021 l 433 1021 q 450 973 450 1021 q 427 925 450 925 l 318 925 l 318 392 q 450 113 318 161 q 545 98 491 98 q 642 116 600 98 q 711 169 684 133 q 764 390 764 239 l 764 914 q 755 925 764 925 l 657 925 q 631 962 637 925 q 629 981 629 971 q 647 1021 629 1021 l 997 1021 q 1015 977 1015 1021 q 1005 935 1015 945 q 990 925 996 925 l 876 925 l 876 376 m 302 1192 l 302 1193 q 355 1279 302 1256 q 393 1286 372 1286 q 430 1279 413 1286 q 460 1259 448 1271 q 487 1192 487 1232 q 460 1124 487 1152 q 403 1099 434 1099 q 327 1125 351 1099 q 302 1192 302 1152 m 701 1099 q 616 1154 638 1099 q 609 1192 609 1171 q 663 1279 609 1256 q 701 1286 680 1286 q 768 1259 741 1286 q 793 1192 793 1233 q 738 1105 793 1128 q 701 1099 721 1099 z "},"ร":{"ha":871,"x_min":-21,"x_max":882,"o":"m 182 0 q 165 39 165 0 l 165 41 q 183 91 165 73 q 193 96 188 96 l 295 96 q 366 113 357 96 q 369 125 369 118 l 369 379 l 73 925 l -3 925 q -21 966 -21 925 q -12 1010 -21 999 q 5 1021 -2 1021 l 340 1021 q 357 982 357 1021 q 347 936 357 947 q 329 925 336 925 q 257 901 257 925 q 261 886 257 895 l 454 498 l 669 925 l 563 925 q 545 964 545 925 q 554 1010 545 1000 q 570 1021 564 1021 l 865 1021 q 882 982 882 1021 q 866 930 882 947 q 841 925 860 925 q 781 896 796 925 l 512 379 l 512 96 l 678 96 q 696 54 696 96 q 686 11 696 22 q 668 0 675 0 l 182 0 m 489 1084 q 446 1100 460 1084 q 422 1157 422 1128 l 607 1350 l 609 1350 q 679 1321 651 1350 q 708 1243 708 1291 l 489 1084 z "},"ร":{"ha":827,"x_min":50,"x_max":785,"o":"m 85 0 q 68 39 68 0 q 87 91 68 72 q 108 96 92 96 l 111 96 q 116 96 113 96 q 148 98 132 96 q 178 102 168 99 q 197 125 197 109 l 197 914 q 189 925 197 925 l 78 925 q 52 962 58 925 q 50 981 50 971 q 68 1021 50 1021 l 469 1021 q 486 973 486 1021 q 463 925 486 925 l 340 925 l 340 802 l 444 802 q 761 654 689 802 q 785 543 785 606 l 785 539 q 340 227 785 227 l 340 96 l 454 96 q 472 54 472 96 q 462 11 472 22 q 444 0 452 0 l 85 0 m 627 510 q 604 604 627 567 q 541 661 581 640 q 340 697 473 697 l 340 331 q 545 363 480 331 q 627 510 627 406 z "},"ร":{"ha":808,"x_min":69,"x_max":777,"o":"m 492 97 q 547 91 513 91 q 595 98 579 91 q 621 117 610 105 q 644 173 644 140 q 633 227 644 205 q 602 264 621 249 q 559 292 583 280 l 509 315 q 421 370 445 344 q 374 496 374 420 q 462 680 374 593 q 532 769 514 731 q 550 846 550 808 q 537 909 550 885 q 505 947 524 933 q 421 969 472 968 l 420 969 q 335 945 370 969 q 276 886 299 922 q 232 730 232 817 l 232 58 l 170 -9 q 152 -14 163 -14 q 81 14 114 -14 q 69 30 72 22 l 100 153 l 100 734 q 175 969 100 877 q 416 1074 260 1074 q 669 951 602 1074 q 693 852 693 906 q 679 766 693 799 q 645 707 665 734 q 600 657 624 680 q 555 613 575 635 q 506 527 506 562 q 517 471 506 491 q 548 437 529 452 q 591 411 567 423 l 642 386 q 730 325 707 353 q 777 189 777 269 q 713 42 776 97 q 546 -14 650 -14 q 397 16 471 -14 q 320 79 345 38 q 308 123 308 99 q 315 163 308 146 q 335 193 323 180 q 401 218 361 218 q 468 192 441 218 q 494 127 494 167 l 494 125 q 492 97 494 106 z "},"ร":{"ha":709,"x_min":47,"x_max":723,"o":"m 256 597 q 264 557 264 579 q 258 517 264 534 q 237 488 250 500 q 172 462 212 463 q 85 517 109 462 q 79 559 79 534 q 93 606 79 584 q 131 643 107 627 q 183 668 154 659 q 243 683 213 677 q 361 692 297 692 q 470 672 424 692 q 544 617 517 652 q 591 446 591 557 l 591 96 l 705 96 q 723 56 723 96 q 716 21 723 38 q 695 0 709 3 q 587 -11 657 -11 q 507 -8 515 -11 q 492 0 499 -6 q 467 47 479 12 q 267 -14 384 -14 q 103 42 163 -14 q 47 177 47 94 l 47 179 q 123 341 47 283 q 291 393 191 393 l 458 393 q 440 539 458 506 q 395 584 421 572 q 326 597 369 597 l 256 597 m 292 91 q 458 159 377 91 l 458 291 l 311 291 q 231 273 256 291 q 184 197 184 240 q 250 97 184 117 q 292 91 270 91 m 142 965 q 203 1065 142 1039 q 240 1072 220 1072 l 243 1072 l 429 879 q 415 834 429 850 q 362 806 391 806 l 142 965 z "},"รก":{"ha":709,"x_min":47,"x_max":723,"o":"m 256 597 q 264 557 264 579 q 258 517 264 534 q 237 488 250 500 q 172 462 212 463 q 85 517 109 462 q 79 559 79 534 q 93 606 79 584 q 131 643 107 627 q 183 668 154 659 q 243 683 213 677 q 361 692 297 692 q 470 672 424 692 q 544 617 517 652 q 591 446 591 557 l 591 96 l 705 96 q 723 56 723 96 q 716 21 723 38 q 695 0 709 3 q 587 -11 657 -11 q 507 -8 515 -11 q 492 0 499 -6 q 467 47 479 12 q 267 -14 384 -14 q 103 42 163 -14 q 47 177 47 94 l 47 179 q 123 341 47 283 q 291 393 191 393 l 458 393 q 440 539 458 506 q 395 584 421 572 q 326 597 369 597 l 256 597 m 292 91 q 458 159 377 91 l 458 291 l 311 291 q 231 273 256 291 q 184 197 184 240 q 250 97 184 117 q 292 91 270 91 m 354 806 q 311 822 326 806 q 287 879 287 850 l 472 1072 l 474 1072 q 544 1043 516 1072 q 573 965 573 1013 l 354 806 z "},"รข":{"ha":709,"x_min":47,"x_max":723,"o":"m 256 597 q 264 557 264 579 q 258 517 264 534 q 237 488 250 500 q 172 462 212 463 q 85 517 109 462 q 79 559 79 534 q 93 606 79 584 q 131 643 107 627 q 183 668 154 659 q 243 683 213 677 q 361 692 297 692 q 470 672 424 692 q 544 617 517 652 q 591 446 591 557 l 591 96 l 705 96 q 723 56 723 96 q 716 21 723 38 q 695 0 709 3 q 587 -11 657 -11 q 507 -8 515 -11 q 492 0 499 -6 q 467 47 479 12 q 267 -14 384 -14 q 103 42 163 -14 q 47 177 47 94 l 47 179 q 123 341 47 283 q 291 393 191 393 l 458 393 q 440 539 458 506 q 395 584 421 572 q 326 597 369 597 l 256 597 m 292 91 q 458 159 377 91 l 458 291 l 311 291 q 231 273 256 291 q 184 197 184 240 q 250 97 184 117 q 292 91 270 91 m 165 814 q 130 829 142 814 q 109 882 109 854 l 282 1002 q 330 1021 311 1021 q 383 1002 354 1021 l 557 882 q 522 819 557 838 q 500 814 512 814 l 334 893 l 165 814 z "},"รฃ":{"ha":709,"x_min":39,"x_max":723,"o":"m 256 597 q 264 557 264 579 q 258 517 264 534 q 237 488 250 500 q 172 462 212 463 q 85 517 109 462 q 79 559 79 534 q 93 606 79 584 q 131 643 107 627 q 183 668 154 659 q 243 683 213 677 q 361 692 297 692 q 470 672 424 692 q 544 617 517 652 q 591 446 591 557 l 591 96 l 705 96 q 723 56 723 96 q 716 21 723 38 q 695 0 709 3 q 587 -11 657 -11 q 507 -8 515 -11 q 492 0 499 -6 q 467 47 479 12 q 267 -14 384 -14 q 103 42 163 -14 q 47 177 47 94 l 47 179 q 123 341 47 283 q 291 393 191 393 l 458 393 q 440 539 458 506 q 395 584 421 572 q 326 597 369 597 l 256 597 m 292 91 q 458 159 377 91 l 458 291 l 311 291 q 231 273 256 291 q 184 197 184 240 q 250 97 184 117 q 292 91 270 91 m 102 825 q 62 840 76 826 q 39 888 39 863 q 160 1006 83 967 q 228 1022 193 1022 q 287 1007 262 1022 q 336 973 312 991 q 384 939 359 954 q 431 924 408 924 q 470 934 453 924 q 501 959 487 945 q 527 988 515 973 q 548 1011 538 1003 q 589 997 574 1011 q 614 949 614 972 q 500 827 578 867 q 435 810 468 810 q 382 817 402 810 q 345 833 362 823 q 311 854 327 843 q 279 876 294 867 q 219 900 243 899 l 217 900 q 177 890 194 900 q 144 869 159 881 q 120 844 130 857 q 102 825 109 831 z "},"รค":{"ha":709,"x_min":47,"x_max":723,"o":"m 256 597 q 264 557 264 579 q 258 517 264 534 q 237 488 250 500 q 172 462 212 463 q 85 517 109 462 q 79 559 79 534 q 93 606 79 584 q 131 643 107 627 q 183 668 154 659 q 243 683 213 677 q 361 692 297 692 q 470 672 424 692 q 544 617 517 652 q 591 446 591 557 l 591 96 l 705 96 q 723 56 723 96 q 716 21 723 38 q 695 0 709 3 q 587 -11 657 -11 q 507 -8 515 -11 q 492 0 499 -6 q 467 47 479 12 q 267 -14 384 -14 q 103 42 163 -14 q 47 177 47 94 l 47 179 q 123 341 47 283 q 291 393 191 393 l 458 393 q 440 539 458 506 q 395 584 421 572 q 326 597 369 597 l 256 597 m 292 91 q 458 159 377 91 l 458 291 l 311 291 q 231 273 256 291 q 184 197 184 240 q 250 97 184 117 q 292 91 270 91 m 77 900 q 132 987 77 964 q 168 994 148 994 q 206 987 189 994 q 236 967 224 979 q 262 902 262 941 l 262 898 q 236 833 262 859 q 179 807 210 807 q 102 833 127 807 q 77 900 77 860 m 476 807 q 391 863 414 807 q 385 900 385 880 q 439 987 385 964 q 476 994 456 994 q 543 967 515 994 q 569 900 568 941 q 513 814 569 836 q 476 807 496 807 z "},"รฅ":{"ha":709,"x_min":47,"x_max":723,"o":"m 256 597 q 264 557 264 579 q 258 517 264 534 q 237 488 250 500 q 172 462 212 463 q 85 517 109 462 q 79 559 79 534 q 93 606 79 584 q 131 643 107 627 q 183 668 154 659 q 243 683 213 677 q 361 692 297 692 q 470 672 424 692 q 544 617 517 652 q 591 446 591 557 l 591 96 l 705 96 q 723 56 723 96 q 716 21 723 38 q 695 0 709 3 q 587 -11 657 -11 q 507 -8 515 -11 q 492 0 499 -6 q 467 47 479 12 q 267 -14 384 -14 q 103 42 163 -14 q 47 177 47 94 l 47 179 q 123 341 47 283 q 291 393 191 393 l 458 393 q 440 539 458 506 q 395 584 421 572 q 326 597 369 597 l 256 597 m 292 91 q 458 159 377 91 l 458 291 l 311 291 q 231 273 256 291 q 184 197 184 240 q 250 97 184 117 q 292 91 270 91 m 174 905 q 185 960 174 935 q 214 1006 195 986 q 321 1048 256 1048 q 429 1006 387 1048 q 469 906 469 965 l 469 902 q 429 803 469 843 q 321 761 387 761 q 214 803 256 761 q 174 903 174 843 l 174 905 m 269 907 q 284 866 269 883 q 324 850 300 850 q 364 866 348 850 q 380 907 380 883 q 364 947 380 930 q 324 964 348 964 q 284 947 300 964 q 269 907 269 930 z "},"รฆ":{"ha":1078,"x_min":48,"x_max":1025,"o":"m 258 591 q 266 554 266 573 q 259 517 266 534 q 239 488 251 500 q 173 462 213 463 q 87 517 110 462 q 80 559 80 534 q 93 606 80 584 q 127 643 106 627 q 175 668 148 659 q 229 683 201 677 q 323 692 279 692 q 397 685 368 692 q 450 665 427 678 q 519 597 496 639 q 694 686 594 665 q 775 692 727 692 q 873 671 823 692 q 956 609 922 650 q 1025 378 1025 527 q 996 324 1025 347 q 921 301 966 301 l 568 301 q 623 143 575 196 q 745 91 671 91 q 904 144 816 91 l 951 172 q 958 174 955 173 q 967 176 960 176 q 982 168 973 176 q 999 149 991 160 q 1016 105 1016 122 q 1009 83 1016 87 q 739 -14 885 -14 q 513 76 591 -14 l 468 47 q 269 -14 376 -14 q 104 42 164 -14 q 48 177 48 94 l 48 179 q 125 346 48 284 q 292 402 195 402 l 429 402 q 435 469 435 457 q 327 595 435 595 l 315 595 q 296 595 307 595 q 275 593 286 594 q 258 591 265 593 m 461 159 q 430 300 438 215 l 316 300 q 222 271 260 300 q 185 205 185 241 q 194 149 185 170 q 217 117 202 130 q 283 92 245 92 q 288 91 286 91 q 345 97 322 91 q 389 112 368 102 q 461 159 424 128 m 886 403 q 807 578 886 545 q 753 588 783 587 l 751 588 q 691 576 723 588 q 632 541 659 564 q 566 403 572 488 l 886 403 z "},"รง":{"ha":681,"x_min":56,"x_max":644,"o":"m 444 597 l 381 597 q 260 543 311 597 q 195 346 195 475 q 300 107 195 157 q 368 91 333 91 q 430 98 402 91 q 484 118 458 106 q 536 144 511 130 l 584 174 q 593 176 587 176 q 609 168 600 176 q 627 149 618 160 q 644 106 644 123 q 637 83 644 90 q 355 -14 507 -14 q 133 85 213 -14 q 56 346 56 180 q 154 604 56 509 q 389 692 246 692 q 602 625 543 692 q 624 570 624 600 q 617 524 624 541 q 597 495 609 507 q 531 469 570 469 q 465 495 492 469 q 438 547 438 521 q 444 597 438 572 m 387 -163 q 294 -121 387 -121 l 268 -89 l 303 10 l 411 10 l 387 -61 q 491 -123 464 -75 q 500 -160 500 -140 q 251 -298 500 -298 q 231 -285 237 -298 q 224 -259 224 -273 q 243 -222 224 -222 q 374 -189 339 -222 q 387 -163 387 -178 z "},"รจ":{"ha":707,"x_min":55,"x_max":652,"o":"m 55 349 q 83 498 55 433 q 156 605 110 562 q 387 692 250 692 l 389 692 q 584 613 515 692 q 652 386 652 534 q 623 331 652 354 q 551 309 595 309 l 194 309 q 304 105 206 150 q 370 91 336 91 q 432 99 405 91 q 484 118 459 106 q 533 145 509 130 q 591 176 583 176 q 609 168 600 176 q 625 149 617 160 q 644 106 643 123 l 644 104 q 636 83 644 88 q 354 -14 512 -14 q 133 85 212 -14 q 55 349 55 182 m 513 410 l 513 413 q 435 578 513 547 q 381 588 411 588 q 319 577 351 588 q 259 544 286 566 q 194 410 199 494 l 513 410 m 162 965 q 223 1065 162 1039 q 260 1072 240 1072 l 263 1072 l 448 879 q 434 834 448 850 q 382 806 410 806 l 162 965 z "},"รฉ":{"ha":707,"x_min":55,"x_max":652,"o":"m 55 349 q 83 498 55 433 q 156 605 110 562 q 387 692 250 692 l 389 692 q 584 613 515 692 q 652 386 652 534 q 623 331 652 354 q 551 309 595 309 l 194 309 q 304 105 206 150 q 370 91 336 91 q 432 99 405 91 q 484 118 459 106 q 533 145 509 130 q 591 176 583 176 q 609 168 600 176 q 625 149 617 160 q 644 106 643 123 l 644 104 q 636 83 644 88 q 354 -14 512 -14 q 133 85 212 -14 q 55 349 55 182 m 513 410 l 513 413 q 435 578 513 547 q 381 588 411 588 q 319 577 351 588 q 259 544 286 566 q 194 410 199 494 l 513 410 m 389 806 q 346 822 360 806 q 321 879 321 850 l 507 1072 l 509 1072 q 578 1043 551 1072 q 608 965 608 1013 l 389 806 z "},"รช":{"ha":707,"x_min":55,"x_max":652,"o":"m 55 349 q 83 498 55 433 q 156 605 110 562 q 387 692 250 692 l 389 692 q 584 613 515 692 q 652 386 652 534 q 623 331 652 354 q 551 309 595 309 l 194 309 q 304 105 206 150 q 370 91 336 91 q 432 99 405 91 q 484 118 459 106 q 533 145 509 130 q 591 176 583 176 q 609 168 600 176 q 625 149 617 160 q 644 106 643 123 l 644 104 q 636 83 644 88 q 354 -14 512 -14 q 133 85 212 -14 q 55 349 55 182 m 513 410 l 513 413 q 435 578 513 547 q 381 588 411 588 q 319 577 351 588 q 259 544 286 566 q 194 410 199 494 l 513 410 m 202 814 q 166 829 179 814 q 145 882 145 854 l 319 1002 q 366 1021 347 1021 q 420 1002 391 1021 l 593 882 q 559 819 593 838 q 536 814 549 814 l 370 893 l 202 814 z "},"รซ":{"ha":707,"x_min":55,"x_max":652,"o":"m 55 349 q 83 498 55 433 q 156 605 110 562 q 387 692 250 692 l 389 692 q 584 613 515 692 q 652 386 652 534 q 623 331 652 354 q 551 309 595 309 l 194 309 q 304 105 206 150 q 370 91 336 91 q 432 99 405 91 q 484 118 459 106 q 533 145 509 130 q 591 176 583 176 q 609 168 600 176 q 625 149 617 160 q 644 106 643 123 l 644 104 q 636 83 644 88 q 354 -14 512 -14 q 133 85 212 -14 q 55 349 55 182 m 513 410 l 513 413 q 435 578 513 547 q 381 588 411 588 q 319 577 351 588 q 259 544 286 566 q 194 410 199 494 l 513 410 m 140 900 q 194 987 140 964 q 231 994 210 994 q 269 987 251 994 q 298 967 286 979 q 325 902 325 941 l 325 898 q 298 833 325 859 q 241 807 273 807 q 165 833 190 807 q 140 900 140 860 m 538 807 q 454 863 476 807 q 447 900 447 880 q 501 987 447 964 q 538 994 518 994 q 605 967 578 994 q 631 900 631 941 q 576 814 631 836 q 538 807 559 807 z "},"รฌ":{"ha":449,"x_min":15,"x_max":434,"o":"m 15 965 q 76 1065 15 1039 q 113 1072 93 1072 l 116 1072 l 301 879 q 288 834 301 850 q 235 806 263 806 l 15 965 m 60 0 q 43 41 43 0 q 53 85 43 74 q 71 96 63 96 l 77 96 q 167 111 157 96 q 170 123 170 116 l 170 574 l 51 574 q 24 609 31 575 q 23 629 23 618 q 41 667 23 660 q 90 679 60 674 q 152 686 119 684 q 272 692 214 692 l 273 692 q 302 635 301 692 l 302 96 l 416 96 q 434 54 434 96 q 424 11 434 22 q 406 0 414 0 l 60 0 z "},"รญ":{"ha":449,"x_min":23,"x_max":460,"o":"m 241 806 q 199 822 213 806 q 174 879 174 850 l 359 1072 l 361 1072 q 431 1043 404 1072 q 460 965 460 1013 l 241 806 m 60 0 q 43 41 43 0 q 53 85 43 74 q 71 96 63 96 l 77 96 q 167 111 157 96 q 170 123 170 116 l 170 574 l 51 574 q 24 609 31 575 q 23 629 23 618 q 41 667 23 660 q 90 679 60 674 q 152 686 119 684 q 272 692 214 692 l 273 692 q 302 635 301 692 l 302 96 l 416 96 q 434 54 434 96 q 424 11 434 22 q 406 0 414 0 l 60 0 z "},"รฎ":{"ha":449,"x_min":-17,"x_max":434,"o":"m 60 0 q 43 41 43 0 q 53 85 43 74 q 71 96 63 96 l 77 96 q 167 111 157 96 q 170 123 170 116 l 170 574 l 51 574 q 24 609 31 575 q 23 629 23 618 q 41 667 23 660 q 90 679 60 674 q 152 686 119 684 q 272 692 214 692 l 273 692 q 302 635 301 692 l 302 96 l 416 96 q 434 54 434 96 q 424 11 434 22 q 406 0 414 0 l 60 0 m 40 814 q 4 829 17 814 q -17 882 -17 854 l 157 1002 q 205 1021 186 1021 q 258 1002 229 1021 l 431 882 q 397 819 431 838 q 374 814 387 814 l 208 893 l 40 814 z "},"รฏ":{"ha":449,"x_min":-30,"x_max":462,"o":"m -30 900 q 24 987 -30 964 q 61 994 41 994 q 99 987 81 994 q 129 967 117 979 q 155 902 155 941 l 155 898 q 129 833 155 859 q 72 807 103 807 q -5 833 20 807 q -30 900 -30 860 m 369 807 q 284 863 307 807 q 277 900 277 880 q 332 987 277 964 q 369 994 349 994 q 435 967 408 994 q 462 900 461 941 q 406 814 462 836 q 369 807 389 807 m 60 0 q 43 41 43 0 q 53 85 43 74 q 71 96 63 96 l 77 96 q 167 111 157 96 q 170 123 170 116 l 170 574 l 51 574 q 24 609 31 575 q 23 629 23 618 q 41 667 23 660 q 90 679 60 674 q 152 686 119 684 q 272 692 214 692 l 273 692 q 302 635 301 692 l 302 96 l 416 96 q 434 54 434 96 q 424 11 434 22 q 406 0 414 0 l 60 0 z "},"รฐ":{"ha":755,"x_min":53,"x_max":686,"o":"m 490 646 q 345 836 452 741 l 208 725 l 150 796 l 272 893 q 138 973 207 940 q 121 1005 121 981 q 132 1044 121 1028 q 172 1074 152 1074 q 256 1035 187 1074 q 366 968 326 996 l 498 1074 q 507 1063 500 1074 l 554 1006 l 439 912 q 671 511 629 751 q 686 342 686 431 q 661 187 686 254 q 591 76 635 121 q 348 -14 501 -14 q 130 90 210 -14 q 53 346 53 189 q 152 587 53 490 q 364 680 245 680 q 490 646 438 680 m 547 343 q 363 575 547 575 q 250 519 298 575 q 192 346 193 454 l 192 344 q 297 107 192 159 q 373 91 330 91 q 449 111 416 91 q 503 165 481 131 q 547 343 547 235 z "},"รฑ":{"ha":875,"x_min":23,"x_max":861,"o":"m 524 0 q 507 41 507 0 q 517 85 507 74 q 534 96 527 96 q 605 125 605 96 l 605 326 q 590 499 605 458 q 552 557 575 540 q 488 574 528 574 q 302 487 413 574 l 302 96 l 416 96 q 434 54 434 96 q 424 11 434 22 q 406 0 414 0 l 60 0 q 43 41 43 0 q 53 85 43 74 q 71 96 63 96 l 77 96 q 166 111 155 96 q 170 125 170 117 l 170 574 l 51 574 q 24 608 30 575 q 23 627 23 617 q 41 666 23 659 q 87 678 59 673 q 145 686 115 684 q 237 693 206 693 l 239 693 q 275 686 269 692 q 285 669 282 680 q 288 621 288 657 l 288 608 q 475 686 391 665 q 544 692 502 692 q 627 674 585 692 q 694 623 669 656 q 737 433 737 563 l 737 96 l 842 96 q 861 54 861 96 q 850 11 861 22 q 833 0 840 0 l 524 0 m 219 825 q 179 840 193 826 q 155 888 156 863 q 277 1006 199 967 q 345 1022 309 1022 q 404 1007 379 1022 q 452 973 429 991 q 500 939 476 954 q 547 924 524 924 q 587 934 570 924 q 618 959 604 945 q 644 988 632 973 q 665 1011 655 1003 q 705 997 690 1011 q 731 949 731 972 q 617 827 694 867 q 552 810 585 810 q 499 817 519 810 q 461 833 479 823 q 427 854 444 843 q 396 876 411 867 q 336 900 359 899 l 334 900 q 294 890 311 900 q 261 869 275 881 q 236 844 247 857 q 219 825 226 831 z "},"รฒ":{"ha":741,"x_min":54,"x_max":686,"o":"m 351 -14 q 223 14 278 -14 q 130 90 168 41 q 54 347 54 188 q 157 608 54 514 q 393 692 251 692 l 395 692 q 609 591 528 692 q 686 342 686 495 q 591 76 686 171 q 351 -14 502 -14 m 252 541 q 239 527 252 541 q 210 466 227 513 q 193 351 193 419 q 206 233 193 281 q 243 155 220 186 q 372 91 290 91 q 505 165 458 91 q 547 343 547 233 q 439 574 547 527 q 374 588 407 588 q 309 578 340 588 q 252 541 278 568 m 165 965 q 227 1065 165 1039 q 263 1072 243 1072 l 267 1072 l 452 879 q 438 834 452 850 q 385 806 414 806 l 165 965 z "},"รณ":{"ha":741,"x_min":54,"x_max":686,"o":"m 351 -14 q 223 14 278 -14 q 130 90 168 41 q 54 347 54 188 q 157 608 54 514 q 393 692 251 692 l 395 692 q 609 591 528 692 q 686 342 686 495 q 591 76 686 171 q 351 -14 502 -14 m 252 541 q 239 527 252 541 q 210 466 227 513 q 193 351 193 419 q 206 233 193 281 q 243 155 220 186 q 372 91 290 91 q 505 165 458 91 q 547 343 547 233 q 439 574 547 527 q 374 588 407 588 q 309 578 340 588 q 252 541 278 568 m 393 806 q 350 822 364 806 q 326 879 326 850 l 511 1072 l 513 1072 q 583 1043 555 1072 q 612 965 612 1013 l 393 806 z "},"รด":{"ha":741,"x_min":54,"x_max":686,"o":"m 351 -14 q 223 14 278 -14 q 130 90 168 41 q 54 347 54 188 q 157 608 54 514 q 393 692 251 692 l 395 692 q 609 591 528 692 q 686 342 686 495 q 591 76 686 171 q 351 -14 502 -14 m 252 541 q 239 527 252 541 q 210 466 227 513 q 193 351 193 419 q 206 233 193 281 q 243 155 220 186 q 372 91 290 91 q 505 165 458 91 q 547 343 547 233 q 439 574 547 527 q 374 588 407 588 q 309 578 340 588 q 252 541 278 568 m 224 814 q 189 829 201 814 q 168 882 168 854 l 341 1002 q 389 1021 370 1021 q 442 1002 414 1021 l 616 882 q 581 819 616 838 q 559 814 571 814 l 393 893 l 224 814 z "},"รต":{"ha":741,"x_min":54,"x_max":686,"o":"m 163 825 q 123 840 138 826 q 99 888 99 863 q 221 1006 149 970 q 288 1022 254 1022 q 348 1007 323 1022 q 396 973 372 991 q 445 939 420 954 q 492 924 469 924 q 531 934 514 924 q 562 959 547 945 q 588 988 576 973 q 609 1011 600 1003 q 650 997 635 1011 q 675 949 675 972 q 562 827 639 867 q 496 810 529 810 q 443 817 463 810 q 405 833 422 823 q 371 855 387 843 q 340 876 355 867 q 279 900 304 899 l 277 900 q 237 890 254 900 q 205 869 219 881 q 180 844 191 857 q 163 825 170 831 m 351 -14 q 223 14 278 -14 q 130 90 168 41 q 54 347 54 188 q 157 608 54 514 q 393 692 251 692 l 395 692 q 609 591 528 692 q 686 342 686 495 q 591 76 686 171 q 351 -14 502 -14 m 252 541 q 239 527 252 541 q 210 466 227 513 q 193 351 193 419 q 206 233 193 281 q 243 155 220 186 q 372 91 290 91 q 505 165 458 91 q 547 343 547 233 q 439 574 547 527 q 374 588 407 588 q 309 578 340 588 q 252 541 278 568 z "},"รถ":{"ha":741,"x_min":54,"x_max":686,"o":"m 351 -14 q 223 14 278 -14 q 130 90 168 41 q 54 347 54 188 q 157 608 54 514 q 393 692 251 692 l 395 692 q 609 591 528 692 q 686 342 686 495 q 591 76 686 171 q 351 -14 502 -14 m 252 541 q 239 527 252 541 q 210 466 227 513 q 193 351 193 419 q 206 233 193 281 q 243 155 220 186 q 372 91 290 91 q 505 165 458 91 q 547 343 547 233 q 439 574 547 527 q 374 588 407 588 q 309 578 340 588 q 252 541 278 568 m 123 900 l 123 901 q 176 987 123 964 q 214 994 193 994 q 251 987 234 994 q 281 967 269 979 q 308 900 308 940 q 281 833 308 860 q 224 807 255 807 q 148 833 172 807 q 123 900 123 860 m 522 807 q 437 863 459 807 q 430 900 430 880 q 484 987 430 964 q 522 994 501 994 q 589 967 562 994 q 614 900 614 941 q 559 814 614 836 q 522 807 542 807 z "},"รท":{"ha":722,"x_min":48,"x_max":673,"o":"m 426 593 q 420 587 426 593 q 397 574 414 581 q 350 567 380 567 q 294 592 319 567 q 268 649 268 618 q 275 696 268 680 q 294 726 281 713 q 350 751 319 751 q 397 745 380 751 q 426 726 414 738 q 452 670 452 701 l 452 667 q 446 622 452 638 q 426 593 439 605 m 268 220 q 294 287 268 260 q 350 314 319 314 q 397 307 380 314 q 426 287 414 300 q 452 220 452 260 q 397 134 452 157 q 360 127 380 127 q 323 134 340 127 q 294 153 306 141 q 268 220 268 179 m 647 492 q 671 458 665 492 q 673 441 673 449 q 664 398 673 410 q 647 387 654 387 l 76 387 q 50 422 57 387 q 49 439 49 431 q 48 441 48 440 q 50 456 48 448 q 55 473 52 465 q 75 492 63 492 l 647 492 z "},"รธ":{"ha":743,"x_min":27,"x_max":705,"o":"m 615 586 q 688 342 688 489 q 585 76 688 174 q 350 -14 492 -14 q 200 30 264 -14 l 158 -26 q 83 -45 145 -45 q 27 -26 27 -45 l 125 104 q 56 347 56 203 q 160 608 57 515 q 395 693 254 693 q 541 654 477 693 l 581 707 q 615 723 593 722 q 645 724 637 724 q 662 723 652 724 q 682 722 673 723 q 705 707 705 718 l 615 586 m 536 479 l 264 116 q 361 91 304 91 q 452 111 419 91 q 507 165 485 131 q 549 332 549 233 q 536 479 549 431 m 476 568 q 390 591 438 591 q 311 580 342 591 q 254 541 280 568 q 195 346 195 478 q 206 211 195 259 l 476 568 z "},"รน":{"ha":837,"x_min":14,"x_max":823,"o":"m 566 65 q 371 -14 458 -14 q 151 123 200 -14 q 135 229 135 169 l 135 574 l 39 574 q 14 626 14 574 q 28 663 14 660 q 236 692 142 692 q 267 638 266 692 l 267 279 q 335 121 267 146 q 386 113 355 113 q 443 119 416 113 q 492 136 471 126 q 529 157 513 146 l 558 179 l 558 574 l 465 574 q 437 625 437 574 q 455 664 437 656 q 499 676 473 671 q 553 685 525 681 q 637 692 606 692 l 640 692 q 675 685 669 692 q 686 666 684 678 q 690 606 690 649 l 690 96 l 804 96 q 823 52 823 96 q 795 0 823 4 q 671 -11 726 -11 q 608 -5 617 -11 q 591 9 598 0 q 566 65 581 24 m 199 965 q 260 1065 199 1039 q 296 1072 277 1072 l 300 1072 l 485 879 q 471 834 484 850 q 418 806 446 806 l 199 965 z "},"รบ":{"ha":837,"x_min":14,"x_max":823,"o":"m 566 65 q 371 -14 458 -14 q 151 123 200 -14 q 135 229 135 169 l 135 574 l 39 574 q 14 626 14 574 q 28 663 14 660 q 236 692 142 692 q 267 638 266 692 l 267 279 q 335 121 267 146 q 386 113 355 113 q 443 119 416 113 q 492 136 471 126 q 529 157 513 146 l 558 179 l 558 574 l 465 574 q 437 625 437 574 q 455 664 437 656 q 499 676 473 671 q 553 685 525 681 q 637 692 606 692 l 640 692 q 675 685 669 692 q 686 666 684 678 q 690 606 690 649 l 690 96 l 804 96 q 823 52 823 96 q 795 0 823 4 q 671 -11 726 -11 q 608 -5 617 -11 q 591 9 598 0 q 566 65 581 24 m 425 806 q 382 822 397 806 q 358 879 358 850 l 543 1072 l 545 1072 q 615 1043 587 1072 q 644 965 644 1013 l 425 806 z "},"รป":{"ha":837,"x_min":14,"x_max":823,"o":"m 566 65 q 371 -14 458 -14 q 151 123 200 -14 q 135 229 135 169 l 135 574 l 39 574 q 14 626 14 574 q 28 663 14 660 q 236 692 142 692 q 267 638 266 692 l 267 279 q 335 121 267 146 q 386 113 355 113 q 443 119 416 113 q 492 136 471 126 q 529 157 513 146 l 558 179 l 558 574 l 465 574 q 437 625 437 574 q 455 664 437 656 q 499 676 473 671 q 553 685 525 681 q 637 692 606 692 l 640 692 q 675 685 669 692 q 686 666 684 678 q 690 606 690 649 l 690 96 l 804 96 q 823 52 823 96 q 795 0 823 4 q 671 -11 726 -11 q 608 -5 617 -11 q 591 9 598 0 q 566 65 581 24 m 238 814 q 202 829 215 814 q 181 882 181 854 l 355 1002 q 403 1021 384 1021 q 456 1002 427 1021 l 629 882 q 595 819 629 838 q 572 814 585 814 l 406 893 l 238 814 z "},"รผ":{"ha":837,"x_min":14,"x_max":823,"o":"m 566 65 q 371 -14 458 -14 q 151 123 200 -14 q 135 229 135 169 l 135 574 l 39 574 q 14 626 14 574 q 28 663 14 660 q 236 692 142 692 q 267 638 266 692 l 267 279 q 335 121 267 146 q 386 113 355 113 q 443 119 416 113 q 492 136 471 126 q 529 157 513 146 l 558 179 l 558 574 l 465 574 q 437 625 437 574 q 455 664 437 656 q 499 676 473 671 q 553 685 525 681 q 637 692 606 692 l 640 692 q 675 685 669 692 q 686 666 684 678 q 690 606 690 649 l 690 96 l 804 96 q 823 52 823 96 q 795 0 823 4 q 671 -11 726 -11 q 608 -5 617 -11 q 591 9 598 0 q 566 65 581 24 m 154 900 l 154 901 q 208 987 154 964 q 245 994 224 994 q 282 987 265 994 q 312 967 300 979 q 339 900 339 940 q 312 833 339 860 q 255 807 286 807 q 179 833 203 807 q 154 900 154 860 m 553 807 q 468 863 490 807 q 461 900 461 880 q 515 987 461 964 q 553 994 532 994 q 620 967 593 994 q 646 900 646 941 q 590 814 646 836 q 553 807 573 807 z "},"รฝ":{"ha":745,"x_min":4,"x_max":742,"o":"m 725 679 q 742 640 742 679 q 726 589 742 605 q 709 583 720 583 q 688 582 698 583 q 671 576 678 581 q 654 554 661 570 l 368 -176 q 298 -266 347 -233 q 178 -298 249 -298 q 45 -236 83 -298 q 31 -186 31 -213 q 31 -184 31 -185 q 38 -142 31 -159 q 57 -113 45 -125 q 116 -85 84 -85 l 117 -85 q 168 -95 150 -86 q 195 -119 184 -104 q 215 -194 214 -147 q 253 -170 237 -194 q 280 -117 269 -145 q 301 -65 292 -90 q 315 -21 309 -40 q 323 4 321 -2 l 98 583 l 22 583 q 4 624 4 583 q 14 668 4 657 q 31 679 23 679 l 325 679 q 342 640 342 679 q 331 594 342 606 q 314 583 321 583 q 254 554 254 583 l 392 151 l 553 583 l 464 583 q 446 623 446 583 q 455 668 446 658 q 471 679 465 679 l 725 679 m 445 806 q 402 822 416 806 q 378 879 378 850 l 563 1072 l 565 1072 q 635 1043 607 1072 q 664 965 664 1013 l 445 806 z "},"รพ":{"ha":741,"x_min":-52,"x_max":686,"o":"m -14 -297 q -33 -256 -33 -297 q -22 -212 -33 -223 q -5 -201 -12 -201 q 92 -186 80 -201 q 96 -172 96 -180 l 96 956 l -24 956 q -50 990 -43 956 q -52 1010 -52 1000 q -34 1048 -52 1040 q 14 1061 -16 1055 q 77 1068 45 1065 q 197 1074 143 1074 q 227 1016 225 1074 q 228 981 228 999 l 228 636 q 397 692 327 692 q 519 668 468 692 q 607 600 570 644 q 686 343 686 505 q 593 80 686 175 q 363 -9 505 -9 q 248 21 308 -9 q 228 31 235 28 l 228 -201 l 378 -201 q 397 -243 397 -201 q 387 -286 397 -275 q 369 -297 376 -297 l -14 -297 m 228 132 q 355 95 275 95 q 529 218 484 95 q 547 341 547 267 q 530 459 547 414 q 487 529 513 503 q 378 574 442 574 q 264 540 319 574 q 228 508 244 527 l 228 132 z "},"รฟ":{"ha":745,"x_min":4,"x_max":742,"o":"m 725 679 q 742 640 742 679 q 726 589 742 605 q 709 583 720 583 q 688 582 698 583 q 671 576 678 581 q 654 554 661 570 l 368 -176 q 298 -266 347 -233 q 178 -298 249 -298 q 45 -236 83 -298 q 31 -186 31 -213 q 31 -184 31 -185 q 38 -142 31 -159 q 57 -113 45 -125 q 116 -85 84 -85 l 117 -85 q 168 -95 150 -86 q 195 -119 184 -104 q 215 -194 214 -147 q 253 -170 237 -194 q 280 -117 269 -145 q 301 -65 292 -90 q 315 -21 309 -40 q 323 4 321 -2 l 98 583 l 22 583 q 4 624 4 583 q 14 668 4 657 q 31 679 23 679 l 325 679 q 342 640 342 679 q 331 594 342 606 q 314 583 321 583 q 254 554 254 583 l 392 151 l 553 583 l 464 583 q 446 623 446 583 q 455 668 446 658 q 471 679 465 679 l 725 679 m 156 900 q 210 987 156 964 q 247 994 227 994 q 285 987 267 994 q 315 967 302 979 q 341 902 341 941 l 341 898 q 315 833 341 859 q 258 807 289 807 q 181 833 206 807 q 156 900 156 860 m 555 807 q 470 863 492 807 q 463 900 463 880 q 517 987 463 964 q 555 994 534 994 q 621 967 594 994 q 648 900 647 941 q 592 814 648 836 q 555 807 575 807 z "},"ฤฑ":{"ha":449,"x_min":23,"x_max":434,"o":"m 60 0 q 43 41 43 0 q 53 85 43 74 q 71 96 63 96 l 77 96 q 167 111 157 96 q 170 123 170 116 l 170 574 l 51 574 q 24 609 31 575 q 23 629 23 618 q 41 667 23 660 q 90 679 60 674 q 152 686 119 684 q 272 692 214 692 l 273 692 q 302 635 301 692 l 302 96 l 416 96 q 434 54 434 96 q 424 11 434 22 q 406 0 414 0 l 60 0 z "},"ล":{"ha":1385,"x_min":69,"x_max":1353,"o":"m 1165 378 q 1116 350 1165 350 q 1067 368 1067 350 l 1067 471 l 851 471 l 851 104 l 1211 104 l 1262 205 q 1288 218 1269 218 q 1316 216 1306 218 q 1335 211 1326 214 q 1353 191 1353 203 q 1352 186 1353 187 l 1290 0 l 617 0 q 483 -14 557 -14 q 331 16 408 -14 q 195 109 254 47 q 69 496 69 245 q 199 901 69 758 q 525 1034 321 1034 q 641 1021 585 1034 l 1324 1021 l 1324 823 q 1277 800 1324 800 q 1229 815 1229 800 q 1214 888 1229 872 q 1118 916 1187 916 l 851 916 l 851 575 l 1023 575 q 1060 590 1055 575 q 1069 677 1069 612 q 1109 693 1069 693 q 1155 684 1145 693 q 1165 668 1165 674 l 1165 378 m 708 850 q 503 922 637 922 q 307 824 384 922 q 225 558 225 722 q 394 127 225 216 q 517 98 448 98 q 708 150 648 98 l 708 850 z "},"ล":{"ha":1200,"x_min":54,"x_max":1146,"o":"m 614 102 q 349 -14 524 -14 q 130 90 210 -14 q 54 347 54 188 q 157 608 54 514 q 395 692 251 692 q 621 574 540 692 q 881 692 715 692 l 883 692 q 1078 613 1009 692 q 1146 386 1146 534 q 1117 331 1146 354 q 1045 309 1088 309 l 688 309 q 798 105 700 150 q 864 91 829 91 q 926 99 899 91 q 978 118 953 106 q 1027 145 1003 130 q 1085 176 1076 176 q 1103 168 1093 176 q 1119 149 1111 160 q 1137 106 1137 123 l 1137 104 q 1130 83 1137 88 q 850 -14 1006 -14 q 614 102 695 -14 m 252 541 q 239 527 252 541 q 210 466 227 513 q 193 351 193 419 q 206 233 193 281 q 243 155 220 186 q 372 91 290 91 q 505 165 458 91 q 547 343 547 233 q 439 574 547 527 q 374 588 407 588 q 309 578 340 588 q 252 541 278 568 m 1007 410 l 1007 413 q 929 578 1007 547 q 875 588 905 588 q 812 577 845 588 q 753 544 780 566 q 688 410 692 494 l 1007 410 z "},"ห":{"ha":709,"x_min":130,"x_max":578,"o":"m 187 814 q 151 829 164 814 q 130 882 130 854 l 304 1002 q 351 1021 332 1021 q 405 1002 376 1021 l 578 882 q 544 819 578 838 q 522 814 534 814 l 355 893 l 187 814 z "},"ห":{"ha":555,"x_min":130,"x_max":425,"o":"m 130 905 q 141 960 130 935 q 171 1006 152 986 q 277 1048 213 1048 q 384 1006 342 1048 q 425 904 425 964 q 384 803 425 844 q 277 761 342 761 q 171 803 213 761 q 130 905 130 844 m 224 907 q 240 866 224 883 q 280 850 256 850 q 320 866 304 850 q 336 907 336 883 q 320 947 336 930 q 280 964 304 964 q 240 947 256 964 q 224 907 224 930 z "},"ห":{"ha":836,"x_min":130,"x_max":706,"o":"m 194 825 q 153 840 167 826 q 130 888 130 863 q 252 1006 175 967 q 319 1022 285 1022 q 379 1007 354 1022 q 427 973 404 991 q 475 939 451 954 q 522 924 499 924 q 562 934 545 924 q 593 959 578 945 q 618 988 607 973 q 640 1011 630 1003 q 680 997 665 1011 q 706 949 706 972 q 593 827 670 867 q 527 810 560 810 q 474 817 494 810 q 436 833 454 823 q 402 855 418 843 q 372 876 387 867 q 311 900 335 899 l 309 900 q 269 890 286 900 q 236 869 250 881 q 211 844 222 857 q 194 825 201 831 z "},"โ":{"ha":748,"x_min":77,"x_max":671,"o":"m 645 467 q 670 433 663 467 q 671 417 671 425 q 662 375 671 387 q 645 363 652 363 l 104 363 q 79 398 85 363 q 77 415 77 407 q 77 417 77 416 q 79 432 77 424 q 83 449 80 441 q 104 467 92 467 l 645 467 z "},"โ":{"ha":1342,"x_min":77,"x_max":1265,"o":"m 1239 467 q 1264 433 1257 467 q 1265 416 1265 424 q 1256 373 1265 384 q 1239 363 1246 363 l 104 363 q 79 397 85 363 q 77 414 77 406 q 77 416 77 415 q 79 431 77 423 q 83 448 80 440 q 104 467 92 467 l 1239 467 z "},"โ":{"ha":300,"x_min":45,"x_max":265,"o":"m 193 901 q 243 814 243 875 q 214 746 243 773 q 157 719 186 719 q 156 720 156 719 q 107 727 125 720 q 75 747 88 735 q 45 814 45 774 q 224 1074 45 933 q 255 1063 244 1074 q 265 1034 265 1052 q 193 901 193 953 z "},"โ":{"ha":303,"x_min":54,"x_max":275,"o":"m 126 892 q 76 979 76 918 q 104 1047 76 1020 q 163 1074 132 1074 l 163 1074 q 212 1066 194 1074 q 244 1046 231 1058 q 275 979 274 1019 q 95 720 275 860 q 65 730 75 720 q 54 760 54 741 q 126 892 126 840 z "},"โ":{"ha":342,"x_min":50,"x_max":271,"o":"m 122 -11 q 72 77 72 16 q 100 144 72 117 q 159 171 129 171 q 208 163 190 171 q 240 144 227 156 q 271 77 270 117 q 91 -183 271 -43 q 61 -172 71 -183 q 50 -143 50 -161 q 122 -11 122 -62 z "},"โ":{"ha":571,"x_min":45,"x_max":536,"o":"m 193 901 q 243 814 243 875 q 214 746 243 773 q 157 719 186 719 q 156 720 156 719 q 107 727 125 720 q 75 747 88 735 q 45 814 45 774 q 224 1074 45 933 q 255 1063 244 1074 q 265 1034 265 1052 q 193 901 193 953 m 464 901 q 514 814 514 875 q 486 746 514 773 q 427 719 458 719 l 427 720 q 378 727 396 720 q 346 747 359 735 q 315 814 316 774 q 495 1074 315 933 q 525 1063 515 1074 q 536 1034 536 1052 q 464 901 464 953 z "},"โ":{"ha":573,"x_min":54,"x_max":545,"o":"m 397 892 q 347 979 347 918 q 376 1047 347 1020 q 433 1074 404 1074 l 435 1074 q 483 1066 465 1074 q 515 1046 502 1058 q 545 979 545 1019 q 366 720 545 860 q 335 730 346 720 q 325 760 325 741 q 397 892 397 840 m 126 892 q 76 979 76 918 q 104 1047 76 1020 q 163 1074 132 1074 l 163 1074 q 212 1066 194 1074 q 244 1046 231 1058 q 275 979 274 1019 q 95 720 275 860 q 65 730 75 720 q 54 760 54 741 q 126 892 126 840 z "},"โ":{"ha":613,"x_min":50,"x_max":541,"o":"m 393 -11 q 342 77 342 16 q 372 144 343 117 q 431 171 400 171 q 479 163 460 171 q 511 144 498 156 q 541 77 541 117 q 361 -183 541 -43 q 331 -172 342 -183 q 321 -143 321 -161 q 393 -11 393 -62 m 122 -11 q 72 77 72 16 q 100 144 72 117 q 159 171 129 171 q 208 163 190 171 q 240 144 227 156 q 271 77 270 117 q 91 -183 271 -43 q 61 -172 71 -183 q 50 -143 50 -161 q 122 -11 122 -62 z "},"โข":{"ha":484,"x_min":68,"x_max":416,"o":"m 240 349 q 172 362 203 349 q 117 398 140 375 q 68 522 68 448 q 117 648 68 598 q 240 699 166 699 q 366 648 315 699 q 416 522 416 598 q 365 398 416 448 q 240 349 314 349 z "},"โน":{"ha":465,"x_min":29,"x_max":402,"o":"m 56 291 q 29 340 29 313 q 56 408 29 387 l 342 634 q 377 619 363 634 q 402 570 402 593 l 195 363 l 402 125 q 389 87 402 102 q 342 61 364 61 l 56 291 z "},"โบ":{"ha":465,"x_min":63,"x_max":436,"o":"m 408 404 q 436 355 436 381 q 408 287 436 310 l 123 61 q 88 76 102 61 q 63 125 63 102 l 270 332 l 63 570 q 76 608 63 593 q 122 634 99 634 l 408 404 z "},"โด":{"ha":568,"x_min":37,"x_max":531,"o":"m 59 591 q 37 627 41 600 l 253 1034 q 334 1008 300 1034 q 363 963 363 985 l 140 668 l 306 668 l 306 797 q 389 834 306 827 q 431 836 411 836 l 431 668 l 519 668 q 531 635 531 668 q 523 602 531 612 q 510 591 515 591 l 431 591 l 431 507 l 503 507 q 514 472 514 507 q 497 437 514 437 l 189 437 q 178 465 178 437 q 186 496 178 486 q 198 507 194 507 l 254 507 q 306 524 306 507 l 306 591 l 59 591 z "},"โฌ":{"ha":814,"x_min":18,"x_max":786,"o":"m 593 905 q 485 930 553 930 q 370 866 416 930 q 305 678 324 802 l 513 678 q 538 644 532 678 q 540 627 540 635 q 538 610 540 620 q 533 593 536 601 q 513 574 526 574 l 296 574 q 294 544 294 559 l 294 486 l 483 486 q 507 452 500 486 q 509 435 509 443 l 509 433 q 508 418 509 426 q 503 400 506 408 q 483 381 496 381 l 301 381 q 427 119 325 178 q 498 98 463 98 q 556 103 532 98 q 603 116 580 108 q 668 144 645 131 q 699 157 690 157 q 714 150 706 157 q 730 134 723 144 q 746 96 746 113 q 733 66 746 77 q 700 41 721 55 q 650 14 678 26 q 499 -14 584 -14 q 352 20 414 -14 q 247 109 290 54 q 144 381 167 212 l 46 381 q 20 416 27 381 q 19 433 19 425 q 18 435 18 434 q 20 450 18 442 q 25 467 22 458 q 46 486 33 486 l 136 486 l 136 498 q 138 574 136 537 l 79 574 q 53 609 60 574 q 51 625 52 618 q 61 667 51 656 q 79 678 71 678 l 149 678 q 498 1034 203 1034 q 690 983 605 1034 q 786 842 785 925 q 755 767 785 798 q 682 737 726 737 q 608 767 638 737 q 578 839 578 798 q 593 905 578 880 z "}}}
